<svg width="307" height="239" viewBox="0 0 307 239" fill="none" xmlns="http://www.w3.org/2000/svg">
<g clip-path="url(#clip0_650_3030)">
<path d="M277.06 238.423C282.453 238.435 287.719 236.785 292.14 233.7C296.561 230.614 299.923 226.242 301.767 221.178C309.859 198.753 312.332 161.832 280.721 116.806C245.824 67.1008 248.572 19.2778 199.468 14.0152C122.544 5.77102 74.4385 69.2911 47.3775 99.1756C3.86366 147.231 4.3557 180.935 0.175681 213.897C-0.208959 216.968 0.0648795 220.086 0.979009 223.043C1.89314 226.001 3.42663 228.73 5.47763 231.05C7.52862 233.37 10.0502 235.227 12.8748 236.498C15.6994 237.769 18.7624 238.426 21.8603 238.423H277.06Z" fill="#292929"/>
<path d="M64.5581 80.0905C64.5581 80.0905 67.3143 78.1625 65.6598 70.2198L71.6146 68.3359C71.6146 68.3359 71.8226 75.6164 75.1896 77.5192L64.5581 80.0905Z" fill="#E2B5A3"/>
<path opacity="0.15" d="M73.7539 76.168L68.2104 72.9248L72.1821 72.3914C72.4661 73.737 72.9991 75.0179 73.7539 76.168Z" fill="#0C0C0C"/>
<path d="M61.8158 67.5344C62.5396 69.9156 64.1557 72.0584 66.4029 72.5788C68.8616 73.2178 71.4394 73.246 73.9115 72.661C80.5156 71.2883 77.3154 56.2937 73.7827 53.7419C70.25 51.1901 61.1846 54.2055 60.6645 59.2702C60.3954 61.8896 61.1266 65.2664 61.8158 67.5344Z" fill="#E2B5A3"/>
<path d="M76.0484 53.9927C75.81 53.7017 75.4991 53.4786 75.1469 53.3459C71.9844 52.1031 66.4244 52.226 63.8839 53.3409C60.9378 54.6341 57.4193 57.6721 59.1745 63.7639C59.2483 64.0205 59.3244 64.2671 59.4013 64.5086C58.4146 64.4636 57.4346 64.6907 56.5684 65.1651C55.7023 65.6395 54.9836 66.3429 54.491 67.1983C53.9984 68.0537 53.7508 69.028 53.7755 70.0146C53.8003 71.0011 54.0962 71.9619 54.631 72.7916C55.1659 73.6212 55.9189 74.2879 56.8077 74.7184C57.6964 75.149 58.6867 75.3268 59.6699 75.2325C60.6531 75.1382 61.5913 74.7753 62.3819 74.1837C63.1724 73.5921 63.7848 72.7945 64.1518 71.8783C64.6544 72.2137 65.1878 72.5006 65.7448 72.7351C66.1369 72.9064 66.2034 72.719 66.2799 72.2984C66.5466 70.8294 66.2868 65.1812 65.4365 61.1603L72.5953 60.0215L73.4064 56.3056L74.8748 59.7396L77.3231 59.4362C77.4107 57.4678 77.478 55.2386 76.0484 53.9927Z" fill="#0C0C0C"/>
<path d="M71.0588 64.481C71.3664 64.481 71.6158 64.2319 71.6158 63.9245C71.6158 63.6171 71.3664 63.368 71.0588 63.368C70.7512 63.368 70.5018 63.6171 70.5018 63.9245C70.5018 64.2319 70.7512 64.481 71.0588 64.481Z" fill="#0C0C0C"/>
<path d="M75.3753 63.5838C75.6829 63.5838 75.9323 63.3346 75.9323 63.0273C75.9323 62.7199 75.6829 62.4708 75.3753 62.4708C75.0677 62.4708 74.8183 62.7199 74.8183 63.0273C74.8183 63.3346 75.0677 63.5838 75.3753 63.5838Z" fill="#0C0C0C"/>
<path d="M74.6884 61.6354L76.1552 61.4722" stroke="#0C0C0C" stroke-width="1.362" stroke-miterlimit="10" stroke-linecap="round"/>
<path d="M69.7095 62.8122L71.1103 62.286" stroke="#0C0C0C" stroke-width="1.362" stroke-miterlimit="10" stroke-linecap="round"/>
<path d="M68.3511 65.632C68.4184 65.937 68.4246 66.2523 68.3691 66.5596C68.3136 66.8669 68.1975 67.1602 68.0278 67.4224C67.858 67.6845 67.6378 67.9105 67.3799 68.087C67.1221 68.2635 66.8317 68.3871 66.5257 68.4506C66.2197 68.5142 65.9041 68.5164 65.5972 68.4572C65.2903 68.3979 64.9983 68.2784 64.738 68.1055C64.4777 67.9327 64.2543 67.7099 64.0809 67.4501C63.9074 67.1903 63.7873 66.8987 63.7274 66.5922C63.6588 66.2885 63.652 65.9742 63.7076 65.6678C63.7631 65.3615 63.8797 65.0694 64.0506 64.8091C64.2214 64.5487 64.4429 64.3254 64.702 64.1523C64.961 63.9793 65.2523 63.8601 65.5584 63.8019C67.2217 63.5415 68.0854 64.3565 68.3511 65.632Z" fill="#E2B5A3"/>
<g opacity="0.15">
<path d="M73.8927 66.6841C73.8471 66.6896 73.801 66.6786 73.7628 66.6531C73.7246 66.6276 73.6968 66.5893 73.6845 66.5451C73.6721 66.5009 73.676 66.4537 73.6954 66.4122C73.7149 66.3706 73.7486 66.3373 73.7904 66.3184L74.8717 65.8341L73.8684 64.1826C73.8436 64.1391 73.8367 64.0876 73.8493 64.0391C73.8618 63.9907 73.8929 63.949 73.9357 63.9231C73.9786 63.8971 74.0299 63.8889 74.0787 63.9002C74.1276 63.9115 74.17 63.9415 74.1971 63.9836L75.3119 65.8222C75.326 65.8455 75.335 65.8715 75.3382 65.8985C75.3415 65.9255 75.339 65.9528 75.3309 65.9788C75.3228 66.0048 75.3093 66.0287 75.2912 66.049C75.2732 66.0694 75.251 66.0857 75.2262 66.0968L73.9461 66.6698C73.9291 66.6771 73.9111 66.6819 73.8927 66.6841Z" fill="#0C0C0C"/>
</g>
<path d="M71.8541 68.2426C71.8541 68.2426 73.9211 68.2042 75.2896 67.5286C75.2896 67.5286 75.4433 68.8729 73.8465 69.2047C72.2497 69.5366 71.8541 68.2426 71.8541 68.2426Z" fill="#DEE8F5"/>
<path d="M88.2913 38.816L92.5609 37.2382C92.5609 37.2382 93.0991 31.3788 88.1748 28.2805C86.5426 27.2538 85.3518 29.0789 85.6508 29.675C86.6391 31.6453 87.8112 33.4582 87.7877 35.352C87.1565 34.7632 86.2463 34.0078 85.9779 34.2843C85.2722 35.0071 88.2913 38.816 88.2913 38.816Z" fill="#E2B5A3"/>
<path d="M25.0501 168.914L26.6512 161.009C26.675 161.014 26.7062 161.02 26.7431 161.029C26.163 160.883 22.6718 159.762 19.7696 158.807L17.2452 166.468C24.091 168.72 24.813 168.866 25.0501 168.914Z" fill="#E2B5A3"/>
<path d="M11.8616 175.532C11.8106 175.743 11.8036 175.962 11.8412 176.176C11.8787 176.389 11.96 176.593 12.0798 176.774C12.1996 176.955 12.3555 177.109 12.5377 177.227C12.7199 177.345 12.9244 177.424 13.1386 177.459C13.4355 177.508 13.7402 177.471 14.0169 177.353C14.2936 177.235 14.5308 177.04 14.7004 176.792L20.0052 168.43C20.1073 168.267 20.1731 168.085 20.1981 167.895C20.2231 167.705 20.2067 167.512 20.1501 167.329C19.589 165.862 19.514 164.253 19.936 162.74C20.3132 161.574 21.011 160.536 21.9499 159.747C22.0402 159.68 22.1095 159.588 22.1496 159.483C22.1897 159.377 22.1989 159.263 22.1763 159.152C22.1537 159.042 22.1002 158.94 22.0219 158.859C21.9436 158.778 21.8438 158.721 21.7343 158.694L17.2732 157.596C17.1417 157.563 17.005 157.557 16.871 157.577C16.7371 157.598 16.6085 157.645 16.4927 157.715C16.3769 157.785 16.2761 157.878 16.1961 157.987C16.1161 158.096 16.0585 158.22 16.0266 158.352L11.8616 175.532Z" fill="#0C0C0C"/>
<path d="M84.5395 224.202C87.3979 217.591 87.6082 216.886 87.6774 216.654L79.9404 214.353C79.9474 214.329 79.9562 214.299 79.9689 214.263C79.7709 214.827 78.3406 218.201 77.1289 221.003L84.5395 224.202Z" fill="#E2B5A3"/>
<path d="M93.0913 230.372C93.2971 230.442 93.515 230.469 93.7316 230.45C93.9481 230.432 94.1586 230.37 94.3498 230.267C94.541 230.164 94.7089 230.022 94.8429 229.851C94.977 229.68 95.0742 229.484 95.1287 229.273C95.2041 228.983 95.1947 228.676 95.1018 228.39C95.0088 228.105 94.8361 227.851 94.604 227.66L86.7437 221.63C86.5911 221.514 86.4153 221.432 86.2282 221.391C86.0411 221.349 85.8472 221.348 85.6596 221.388C84.1466 221.814 82.5366 221.745 81.066 221.189C79.9369 220.709 78.9657 219.922 78.2629 218.916C78.2037 218.821 78.1184 218.743 78.017 218.694C77.9155 218.645 77.8022 218.625 77.6901 218.638C77.5781 218.651 77.4719 218.695 77.384 218.766C77.2962 218.836 77.2302 218.93 77.1939 219.037L75.6989 223.377C75.6548 223.505 75.6364 223.641 75.6448 223.776C75.6532 223.911 75.6883 224.043 75.748 224.165C75.8077 224.286 75.8908 224.395 75.9926 224.484C76.0944 224.574 76.2129 224.642 76.3413 224.686L93.0913 230.372Z" fill="#0C0C0C"/>
<path d="M101.616 172.73C101.22 163.986 93.1175 124.201 92.2591 119.911L63.1835 121.226C63.1835 121.226 53.5441 158.681 53.1524 159.724L25.2127 157.746L22.3481 171.666L56.9015 177.488C58.7419 177.938 60.6822 177.729 62.3838 176.896C64.0854 176.063 65.4401 174.659 66.2114 172.93C66.2114 172.93 77.1981 140.661 77.4199 140.066L86.4619 170.005L76.2544 216.022L89.8354 220.243C89.8354 220.243 101.777 176.267 101.616 172.73Z" fill="#0C0C0C"/>
<path d="M36.485 50.4116L31.9414 50.6916C31.9414 50.6916 29.5581 44.8345 32.8086 40.0143C33.8849 38.4162 35.7139 39.6049 35.6812 40.2713C35.574 42.4724 34.7587 45.3184 35.5452 47.041C35.8842 46.2479 36.4124 45.1913 36.7687 45.3341C37.7067 45.7086 36.485 50.4116 36.485 50.4116Z" fill="#E2B5A3"/>
<path d="M101.337 63.9874L86.9793 82.231C88.5208 87.2892 87.998 94.6174 88.9475 100.474C90.9387 112.788 94.6636 114.524 93.6795 118.564C92.7262 122.482 61.8123 129.414 60.2786 123.073C59.306 119.041 62.2813 114.854 60.8975 106.908C59.7865 100.509 53.686 93.5074 53.9167 87.3699L36.0111 77.069C35.4889 76.7675 35.0377 76.3573 34.6882 75.8663C34.3386 75.3752 34.0989 74.8148 33.9853 74.223L29.2686 49.4963L37.5026 47.9255L41.8617 70.7702L58.5334 80.3644C59.998 79.5831 61.581 79.0472 63.2193 78.7781C63.2231 78.7781 63.2385 78.7743 63.2731 78.7705C63.9227 80.8445 68.1666 83.8133 72.7679 82.6842C76.2198 81.8469 76.8233 78.6168 76.5543 76.5198C76.5312 76.5236 76.5043 76.5275 76.4774 76.5313C77.1539 76.4238 77.5729 76.3623 77.6191 76.3546C78.7229 76.1962 79.8435 76.1936 80.948 76.3469L93.3758 60.5538L86.0606 37.5516L94.0485 35.0129L102.036 60.1313C102.244 60.7823 102.289 61.4741 102.167 62.1463C102.045 62.8185 101.76 63.4506 101.337 63.9874Z" fill="#00D0C4"/>
<path d="M72.7679 82.683C68.1665 83.8122 63.9227 80.8433 63.2731 78.7693V78.7654C64.1534 78.6157 75.674 76.6569 75.8585 76.6262C76.1083 76.5877 76.3159 76.5532 76.4774 76.5301C76.5043 76.5263 76.5312 76.5225 76.5543 76.5186C76.8233 78.6157 76.2198 81.8469 72.7679 82.683Z" fill="#E2B5A3"/>
<path d="M184.032 238.423H227.793C231.003 235.864 231.224 230.096 227.897 227.521C225.332 225.537 221.455 226.068 219.045 228.132C219.495 226.595 219.504 224.963 219.07 223.421C218.287 220.644 216.545 217.823 213.884 216.7C207.095 213.837 202.272 219.834 201.305 223.187C199.567 220.633 195.678 219.283 193.238 221.003C190.146 223.18 190.286 226.613 192.753 229.077C189.467 228.465 186.992 228.937 184.713 231.381C182.977 233.243 182.712 236.413 184.032 238.423Z" fill="#00D0C4"/>
<path d="M270.126 156.655C268.641 156.17 267.116 156.715 265.658 157.823C267.58 152.976 268.372 148.599 265.088 148.402C262.79 148.264 261.029 150.025 259.692 152.529C259.222 148.126 258.008 144.842 255.29 145.931C252.306 147.126 251.852 151.223 252.305 155.509C250.99 153.32 249.576 152.099 248.289 153.383C244.454 157.215 253.869 168.016 253.869 168.016H256.206L257.54 169.463C257.271 170.034 257.122 170.374 257.122 170.374L258.817 173.82C258.817 173.82 276.29 158.671 270.126 156.655Z" fill="#00D0C4"/>
<path d="M265.934 181.538H252.7L250.485 166.103H268.149L265.934 181.538Z" fill="#8DDBE0"/>
<path d="M247.079 186.347L236.584 237.489C236.517 237.756 236.363 237.993 236.145 238.162C235.928 238.331 235.66 238.423 235.385 238.423C235.197 238.423 235.011 238.38 234.842 238.298C234.674 238.216 234.526 238.096 234.41 237.948C234.294 237.799 234.214 237.627 234.175 237.443C234.137 237.259 234.14 237.069 234.186 236.887L244.83 185.154L247.079 186.347Z" fill="#8DDBE0"/>
<path d="M271.736 186.265L282.23 237.407C282.297 237.674 282.451 237.911 282.669 238.08C282.886 238.25 283.153 238.342 283.429 238.342C283.617 238.342 283.803 238.299 283.972 238.217C284.14 238.134 284.288 238.014 284.404 237.866C284.52 237.718 284.6 237.546 284.639 237.362C284.678 237.178 284.674 236.988 284.628 236.806L273.984 185.073L271.736 186.265Z" fill="#8DDBE0"/>
<path d="M282.765 181.345H236.048C234.867 181.345 233.91 182.302 233.91 183.482V188.186C233.91 189.366 234.867 190.323 236.048 190.323H282.765C283.946 190.323 284.904 189.366 284.904 188.186V183.482C284.904 182.302 283.946 181.345 282.765 181.345Z" fill="#DEE8F5"/>
<path d="M260.372 47.9692L260.718 45.3191L242.113 42.8995L170.143 33.5453L151.538 31.1257L151.192 33.7758C151.394 33.7923 151.591 33.8497 151.77 33.9444C151.95 34.0391 152.108 34.1691 152.235 34.3267C152.363 34.4842 152.457 34.6659 152.512 34.8609C152.567 35.0558 152.582 35.26 152.556 35.4609C152.53 35.6618 152.464 35.8554 152.361 36.0299C152.258 36.2044 152.12 36.3562 151.957 36.4761C151.793 36.596 151.607 36.6815 151.41 36.7275C151.212 36.7735 151.008 36.7789 150.808 36.7435L150.521 38.9435C150.723 38.9606 150.919 39.0184 151.098 39.1134C151.277 39.2084 151.435 39.3386 151.562 39.4962C151.689 39.6537 151.783 39.8354 151.838 40.0301C151.892 40.2249 151.907 40.4287 151.881 40.6294C151.855 40.83 151.788 41.0233 151.685 41.1976C151.583 41.3718 151.445 41.5234 151.282 41.6432C151.119 41.763 150.933 41.8485 150.736 41.8946C150.539 41.9406 150.334 41.9463 150.135 41.9112L149.848 44.1112C150.05 44.1284 150.246 44.1862 150.425 44.2811C150.604 44.3761 150.762 44.5063 150.889 44.6639C151.016 44.8214 151.11 45.0031 151.165 45.1978C151.219 45.3926 151.234 45.5965 151.208 45.7971C151.182 45.9978 151.115 46.191 151.012 46.3653C150.909 46.5395 150.772 46.6911 150.609 46.8109C150.446 46.9307 150.26 47.0162 150.063 47.0623C149.866 47.1083 149.661 47.114 149.462 47.079L149.143 49.5286L149.165 49.5313C151.31 49.8238 153.252 50.9524 154.567 52.6706C155.883 54.3889 156.464 56.5572 156.185 58.7022C155.906 60.8473 154.788 62.7949 153.077 64.1198C151.366 65.4448 149.199 66.0395 147.051 65.7742L147.029 65.7711L146.675 68.4896C146.877 68.5067 147.073 68.5645 147.252 68.6595C147.43 68.7545 147.588 68.8847 147.715 69.0422C147.842 69.1998 147.936 69.3814 147.991 69.5762C148.046 69.7709 148.061 69.9748 148.034 70.1755C148.008 70.3761 147.942 70.5694 147.839 70.7436C147.736 70.9179 147.599 71.0694 147.435 71.1892C147.272 71.309 147.086 71.3945 146.889 71.4406C146.692 71.4867 146.487 71.4924 146.288 71.4573L146.002 73.6573C146.205 73.673 146.402 73.7298 146.582 73.8243C146.763 73.9188 146.922 74.049 147.05 74.2069C147.178 74.3649 147.273 74.5473 147.329 74.743C147.384 74.9387 147.399 75.1436 147.372 75.3453C147.346 75.547 147.279 75.7412 147.175 75.916C147.071 76.0909 146.932 76.2427 146.767 76.3623C146.603 76.4819 146.415 76.5667 146.217 76.6116C146.018 76.6565 145.813 76.6606 145.613 76.6235L145.326 78.8235C145.528 78.84 145.725 78.8974 145.904 78.9921C146.084 79.0868 146.242 79.2168 146.369 79.3743C146.497 79.5319 146.591 79.7136 146.646 79.9086C146.701 80.1035 146.716 80.3076 146.69 80.5086C146.664 80.7095 146.598 80.9031 146.495 81.0776C146.392 81.2521 146.254 81.4039 146.091 81.5238C145.927 81.6437 145.741 81.7292 145.544 81.7752C145.346 81.8211 145.141 81.8266 144.942 81.7912L144.631 84.1744L163.236 86.5941L235.203 95.9505L253.81 98.3701L254.12 95.9889C253.919 95.9712 253.723 95.913 253.545 95.8178C253.366 95.7226 253.209 95.5924 253.083 95.4349C252.956 95.2775 252.863 95.0961 252.808 94.9016C252.753 94.7072 252.739 94.5037 252.765 94.3034C252.791 94.1031 252.857 93.9102 252.96 93.7362C253.063 93.5622 253.199 93.4107 253.362 93.2909C253.525 93.1711 253.71 93.0854 253.907 93.039C254.104 92.9925 254.308 92.9864 254.507 93.0208L254.793 90.8212C254.592 90.8041 254.395 90.7463 254.217 90.6514C254.038 90.5566 253.88 90.4265 253.753 90.269C253.626 90.1116 253.532 89.9301 253.477 89.7354C253.422 89.5408 253.407 89.337 253.433 89.1364C253.459 88.9358 253.525 88.7426 253.628 88.5683C253.731 88.394 253.868 88.2424 254.031 88.1225C254.194 88.0025 254.38 87.9168 254.577 87.8705C254.774 87.8242 254.978 87.8183 255.178 87.853L255.464 85.6535C255.263 85.6364 255.067 85.5786 254.888 85.4837C254.709 85.3888 254.551 85.2588 254.424 85.1013C254.297 84.9439 254.203 84.7624 254.148 84.5677C254.093 84.3731 254.078 84.1693 254.104 83.9687C254.13 83.7681 254.197 83.5749 254.299 83.4006C254.402 83.2263 254.539 83.0747 254.702 82.9547C254.865 82.8348 255.051 82.7491 255.248 82.7028C255.445 82.6565 255.649 82.6506 255.849 82.6853L256.203 79.9672L256.181 79.9642C255.114 79.8255 254.084 79.4781 253.151 78.9418C252.218 78.4055 251.4 77.6909 250.743 76.8386C250.086 75.9864 249.604 75.0134 249.324 73.975C249.044 72.9366 248.971 71.8532 249.11 70.7867C249.249 69.7202 249.596 68.6915 250.133 67.7592C250.67 66.827 251.385 66.0095 252.238 65.3535C253.091 64.6974 254.065 64.2157 255.104 63.9357C256.143 63.6557 257.228 63.583 258.295 63.7217L258.317 63.7243L258.636 61.2747C258.434 61.2582 258.238 61.2008 258.058 61.1061C257.879 61.0114 257.721 60.8814 257.593 60.7239C257.466 60.5663 257.372 60.3846 257.317 60.1896C257.261 59.9947 257.246 59.7905 257.272 59.5896C257.298 59.3887 257.365 59.1951 257.468 59.0206C257.571 58.8461 257.708 58.6943 257.872 58.5744C258.035 58.4545 258.221 58.369 258.419 58.323C258.616 58.2771 258.821 58.2716 259.021 58.307L259.308 56.107C259.106 56.0904 258.909 56.0331 258.73 55.9384C258.55 55.8437 258.392 55.7137 258.265 55.5561C258.137 55.3986 258.043 55.2169 257.988 55.0219C257.932 54.8269 257.917 54.6228 257.943 54.4219C257.969 54.2209 258.036 54.0274 258.139 53.8529C258.242 53.6784 258.38 53.5266 258.543 53.4067C258.707 53.2868 258.893 53.2013 259.09 53.1553C259.288 53.1093 259.492 53.1039 259.692 53.1393L259.978 50.9393C259.777 50.9222 259.58 50.8644 259.402 50.7694C259.223 50.6744 259.065 50.5442 258.938 50.3866C258.811 50.2291 258.717 50.0474 258.662 49.8527C258.607 49.6579 258.593 49.454 258.619 49.2534C258.645 49.0528 258.711 48.8595 258.814 48.6852C258.917 48.511 259.055 48.3594 259.218 48.2396C259.381 48.1198 259.567 48.0343 259.764 47.9882C259.961 47.9422 260.166 47.9365 260.365 47.9715L260.372 47.9692Z" fill="#DEE8F5"/>
<path d="M243.444 92.4155C243.422 92.4176 243.401 92.4176 243.379 92.4155L156.235 81.0853C156.193 81.0799 156.153 81.0664 156.116 81.0456C156.08 81.0247 156.048 80.9969 156.023 80.9637C155.997 80.9306 155.978 80.8927 155.967 80.8522C155.956 80.8118 155.953 80.7696 155.959 80.7281L161.608 37.3569C161.619 37.2731 161.662 37.197 161.729 37.1454C161.797 37.0938 161.881 37.071 161.965 37.0819L249.11 48.4121C249.151 48.4175 249.192 48.431 249.228 48.4519C249.264 48.4728 249.296 48.5006 249.322 48.5339C249.347 48.5671 249.366 48.605 249.377 48.6454C249.388 48.6859 249.391 48.7281 249.385 48.7696L243.737 92.1401C243.728 92.2127 243.693 92.2798 243.64 92.33C243.586 92.3802 243.517 92.4104 243.444 92.4155ZM156.634 80.493L243.146 91.7403L248.71 49.0028L162.199 37.7552L156.634 80.493Z" fill="#292929"/>
<path d="M194.785 114.306C194.566 114.3 194.358 114.208 194.207 114.05C194.056 113.891 193.975 113.679 193.98 113.461L194.364 98.4558C194.37 98.2368 194.462 98.029 194.621 97.8781C194.78 97.7272 194.993 97.6455 195.212 97.6511C195.431 97.6568 195.639 97.7491 195.79 97.908C195.941 98.0668 196.023 98.279 196.017 98.498L195.633 113.503C195.63 113.611 195.606 113.718 195.561 113.817C195.517 113.916 195.454 114.005 195.375 114.08C195.296 114.155 195.204 114.213 195.102 114.252C195.001 114.29 194.893 114.309 194.785 114.306Z" fill="#00D0C4"/>
<path d="M222.171 107.499C222.062 107.496 221.956 107.472 221.857 107.428C221.758 107.384 221.669 107.321 221.594 107.243L211.246 96.361C211.097 96.2019 211.018 95.9906 211.024 95.7732C211.031 95.5558 211.123 95.3498 211.281 95.2C211.439 95.0502 211.65 94.9687 211.867 94.9732C212.085 94.9777 212.292 95.0679 212.443 95.2241L222.79 106.106C222.903 106.224 222.978 106.373 223.006 106.534C223.034 106.695 223.013 106.86 222.947 107.009C222.88 107.159 222.771 107.285 222.633 107.372C222.495 107.459 222.334 107.503 222.171 107.499Z" fill="#00D0C4"/>
<path d="M167.784 106.107C167.62 106.103 167.462 106.05 167.328 105.956C167.195 105.862 167.092 105.73 167.034 105.578C166.975 105.426 166.963 105.259 166.999 105.1C167.035 104.941 167.117 104.796 167.236 104.684L178.127 94.3458C178.205 94.2685 178.298 94.2076 178.4 94.1665C178.502 94.1255 178.611 94.1052 178.721 94.1069C178.83 94.1086 178.939 94.1321 179.04 94.1762C179.14 94.2203 179.231 94.284 179.307 94.3636C179.383 94.4433 179.442 94.5372 179.481 94.6399C179.52 94.7426 179.538 94.8521 179.534 94.9618C179.53 95.0716 179.504 95.1794 179.458 95.2791C179.411 95.3788 179.346 95.4682 179.265 95.5422L168.374 105.88C168.295 105.955 168.203 106.014 168.101 106.053C168 106.092 167.892 106.11 167.784 106.107Z" fill="#00D0C4"/>
<path d="M203.51 0.580624C203.728 0.601059 203.929 0.707224 204.069 0.875767C204.208 1.04431 204.276 1.26142 204.255 1.47936L202.847 16.4233C202.824 16.6392 202.717 16.8373 202.549 16.9748C202.381 17.1123 202.165 17.1781 201.949 17.1579C201.732 17.1377 201.533 17.0331 201.393 16.8669C201.253 16.7006 201.185 16.4861 201.202 16.2697L202.61 1.32611C202.62 1.2181 202.651 1.1131 202.702 1.01714C202.753 0.921184 202.822 0.836143 202.905 0.766893C202.989 0.697643 203.085 0.645544 203.189 0.613581C203.293 0.581617 203.402 0.570418 203.51 0.580624Z" fill="#00D0C4"/>
<path d="M175.723 5.50564C175.831 5.51562 175.936 5.54686 176.032 5.59755C176.128 5.64824 176.213 5.71738 176.282 5.80099L185.862 17.3616C186.002 17.5302 186.069 17.7473 186.049 17.9652C186.028 18.1831 185.922 18.3839 185.753 18.5235C185.584 18.663 185.367 18.7299 185.149 18.7093C184.931 18.6888 184.73 18.5826 184.59 18.414L175.01 6.85335C174.905 6.72763 174.841 6.57387 174.824 6.41151C174.807 6.24916 174.839 6.08549 174.916 5.9412C174.992 5.79692 175.109 5.67849 175.253 5.6009C175.397 5.5233 175.56 5.49002 175.723 5.50525V5.50564Z" fill="#00D0C4"/>
<path d="M229.889 10.6011C230.052 10.616 230.207 10.6791 230.334 10.7822C230.461 10.8853 230.555 11.0239 230.603 11.1804C230.651 11.3368 230.652 11.504 230.605 11.6607C230.557 11.8175 230.465 11.9566 230.338 12.0606L218.768 21.6325C218.684 21.7016 218.588 21.7536 218.484 21.7855C218.38 21.8174 218.271 21.8285 218.163 21.8184C218.055 21.8082 217.951 21.7769 217.855 21.7262C217.759 21.6755 217.674 21.6065 217.605 21.523C217.536 21.4395 217.484 21.3433 217.452 21.2397C217.42 21.1362 217.409 21.0273 217.419 20.9194C217.429 20.8116 217.46 20.7067 217.511 20.6109C217.562 20.5152 217.631 20.4303 217.714 20.3612L229.285 10.7893C229.368 10.7197 229.464 10.6673 229.568 10.635C229.672 10.6027 229.781 10.5912 229.889 10.6011Z" fill="#00D0C4"/>
<path d="M252.735 33.5327L252.934 30.7731L233.548 29.3793L158.571 23.9884L139.185 22.5946L138.987 25.3538C139.191 25.3673 139.39 25.421 139.573 25.5117C139.756 25.6025 139.92 25.7285 140.054 25.8826C140.188 26.0367 140.291 26.2158 140.356 26.4096C140.42 26.6034 140.446 26.8081 140.432 27.0119C140.417 27.2157 140.362 27.4146 140.27 27.5971C140.178 27.7796 140.051 27.9422 139.896 28.0755C139.741 28.2088 139.561 28.3101 139.367 28.3737C139.173 28.4373 138.968 28.4618 138.764 28.446L138.599 30.7377C138.803 30.751 139.003 30.8044 139.186 30.895C139.37 30.9857 139.533 31.1117 139.668 31.2658C139.802 31.4199 139.905 31.5991 139.97 31.7931C140.035 31.987 140.061 32.1919 140.046 32.3958C140.031 32.5998 139.976 32.7989 139.884 32.9815C139.792 33.1642 139.665 33.3269 139.51 33.4602C139.355 33.5935 139.175 33.6948 138.98 33.7582C138.785 33.8217 138.58 33.8461 138.376 33.8299L138.211 36.1217C138.415 36.1349 138.615 36.1884 138.798 36.279C138.982 36.3696 139.145 36.4956 139.28 36.6497C139.414 36.8039 139.517 36.9831 139.582 37.177C139.647 37.3709 139.673 37.5758 139.658 37.7798C139.643 37.9838 139.589 38.1828 139.497 38.3655C139.405 38.5481 139.277 38.7108 139.122 38.8441C138.967 38.9774 138.787 39.0787 138.592 39.1422C138.398 39.2056 138.192 39.23 137.988 39.2139L137.805 41.7661H137.828C140.071 41.9304 142.158 42.9778 143.63 44.6783C145.101 46.3788 145.837 48.5933 145.675 50.8354C145.514 53.0774 144.468 55.1638 142.768 56.6363C141.068 58.1087 138.853 58.8468 136.609 58.6884H136.586L136.382 61.5201C136.586 61.5334 136.785 61.5868 136.969 61.6774C137.152 61.7681 137.316 61.8941 137.451 62.0482C137.585 62.2023 137.688 62.3815 137.753 62.5755C137.818 62.7694 137.843 62.9743 137.829 63.1782C137.814 63.3822 137.759 63.5813 137.667 63.7639C137.575 63.9466 137.448 64.1093 137.293 64.2426C137.137 64.3759 136.957 64.4772 136.763 64.5406C136.568 64.6041 136.363 64.6285 136.159 64.6123L135.994 66.9041C136.198 66.9176 136.397 66.9713 136.581 67.062C136.764 67.1528 136.927 67.2788 137.062 67.4329C137.196 67.587 137.298 67.7661 137.363 67.9599C137.428 68.1537 137.454 68.3584 137.439 68.5622C137.424 68.766 137.369 68.9649 137.278 69.1474C137.186 69.3299 137.058 69.4925 136.903 69.6258C136.748 69.7591 136.569 69.8604 136.374 69.924C136.18 69.9876 135.975 70.0121 135.771 69.9963L135.606 72.2881C135.81 72.3013 136.01 72.3547 136.194 72.4453C136.377 72.536 136.541 72.662 136.675 72.8161C136.81 72.9702 136.912 73.1494 136.977 73.3434C137.042 73.5373 137.068 73.7422 137.053 73.9461C137.039 74.1501 136.984 74.3492 136.892 74.5318C136.8 74.7145 136.673 74.8772 136.517 75.0105C136.362 75.1438 136.182 75.2451 135.987 75.3085C135.793 75.372 135.588 75.3964 135.384 75.3802L135.204 77.8629L154.59 79.2567L229.567 84.6476L248.952 86.0414L249.131 83.5587C248.927 83.5452 248.728 83.4915 248.544 83.4008C248.361 83.31 248.198 83.184 248.063 83.0299C247.929 82.8758 247.827 82.6967 247.762 82.5029C247.697 82.3091 247.671 82.1044 247.686 81.9006C247.701 81.6968 247.756 81.4979 247.847 81.3154C247.939 81.1329 248.066 80.9703 248.221 80.837C248.376 80.7037 248.556 80.6024 248.751 80.5388C248.945 80.4752 249.15 80.4507 249.354 80.4665L249.519 78.1748C249.315 78.1613 249.115 78.1076 248.932 78.0168C248.749 77.9261 248.586 77.8 248.451 77.6459C248.317 77.4918 248.214 77.3127 248.15 77.1189C248.085 76.9251 248.059 76.7204 248.074 76.5166C248.089 76.3128 248.143 76.114 248.235 75.9314C248.327 75.7489 248.454 75.5863 248.609 75.4531C248.764 75.3198 248.944 75.2184 249.139 75.1549C249.333 75.0913 249.538 75.0667 249.742 75.0826L249.907 72.7908C249.702 72.7776 249.503 72.7241 249.319 72.6335C249.136 72.5429 248.972 72.4169 248.838 72.2628C248.703 72.1086 248.6 71.9294 248.535 71.7355C248.471 71.5416 248.445 71.3367 248.459 71.1327C248.474 70.9288 248.529 70.7297 248.621 70.547C248.713 70.3644 248.84 70.2017 248.996 70.0684C249.151 69.9351 249.331 69.8338 249.525 69.7703C249.72 69.7069 249.925 69.6825 250.129 69.6986L250.333 66.8668H250.31C248.064 66.7053 245.974 65.659 244.501 63.958C243.027 62.257 242.289 60.0406 242.451 57.7965C242.613 55.5525 243.66 53.4644 245.362 51.9918C247.065 50.5192 249.283 49.7826 251.529 49.9441H251.552L251.736 47.392C251.326 47.3625 250.944 47.1713 250.675 46.8606C250.405 46.5498 250.271 46.1449 250.3 45.7349C250.33 45.3249 250.521 44.9434 250.832 44.6743C251.143 44.4053 251.548 44.2707 251.959 44.3002L252.124 42.008C251.921 41.9934 251.722 41.939 251.54 41.8478C251.358 41.7566 251.196 41.6305 251.062 41.4766C250.929 41.3227 250.827 41.1441 250.763 40.951C250.699 40.7578 250.673 40.5539 250.688 40.3509C250.703 40.1479 250.757 39.9498 250.848 39.7678C250.94 39.5858 251.066 39.4236 251.22 39.2904C251.374 39.1572 251.553 39.0555 251.746 38.9913C251.939 38.9272 252.143 38.9016 252.346 38.9162L252.511 36.6241C252.308 36.6094 252.11 36.555 251.928 36.4638C251.746 36.3726 251.583 36.2464 251.45 36.0925C251.317 35.9386 251.215 35.76 251.151 35.5669C251.087 35.3737 251.061 35.1698 251.076 34.9668C251.09 34.7638 251.145 34.5656 251.236 34.3837C251.327 34.2017 251.454 34.0395 251.608 33.9063C251.762 33.7731 251.94 33.6715 252.134 33.6073C252.327 33.5431 252.531 33.5176 252.734 33.5323L252.735 33.5327Z" fill="#00D0C4"/>
<path d="M231.374 76.5083L154.32 70.9401C154.283 70.9377 154.247 70.9279 154.214 70.9115C154.181 70.895 154.151 70.8721 154.127 70.8441C154.103 70.8162 154.084 70.7836 154.073 70.7485C154.061 70.7133 154.056 70.6761 154.059 70.6391L156.821 32.1057C156.823 32.0687 156.833 32.0326 156.849 31.9993C156.866 31.9661 156.889 31.9364 156.917 31.9121C156.944 31.8877 156.977 31.8692 157.012 31.8574C157.047 31.8457 157.084 31.841 157.121 31.8437L234.175 37.4118C234.212 37.4143 234.248 37.424 234.281 37.4405C234.314 37.457 234.343 37.4798 234.368 37.5078C234.392 37.5358 234.41 37.5683 234.422 37.6035C234.434 37.6387 234.438 37.6758 234.436 37.7128L231.674 76.2462C231.671 76.2832 231.661 76.3193 231.645 76.3525C231.629 76.3857 231.606 76.4153 231.578 76.4396C231.55 76.464 231.518 76.4826 231.483 76.4943C231.448 76.5061 231.411 76.5108 231.374 76.5083ZM154.64 70.3997L231.135 75.9262L233.856 37.9572L157.362 32.429L154.64 70.3997Z" fill="#DEE8F5"/>
</g>
<defs>
<clipPath id="clip0_650_3030">
<rect width="307" height="237.846" fill="white" transform="translate(0 0.576782)"/>
</clipPath>
</defs>
</svg>
