<svg width="307" height="179" viewBox="0 0 307 179" fill="none" xmlns="http://www.w3.org/2000/svg">
<g clip-path="url(#clip0_650_2893)">
<path d="M194.569 171.764L161.79 171.742C161.167 171.741 160.555 171.573 160.018 171.255C159.482 170.938 159.041 170.482 158.74 169.935C158.44 169.389 158.292 168.772 158.312 168.148C158.331 167.525 158.518 166.919 158.852 166.392L175.258 140.542C175.573 140.046 176.008 139.638 176.522 139.355C177.037 139.072 177.614 138.925 178.202 138.925C178.789 138.925 179.366 139.074 179.88 139.358C180.394 139.641 180.829 140.05 181.143 140.546L197.514 166.418C197.848 166.945 198.033 167.552 198.052 168.175C198.071 168.798 197.922 169.415 197.621 169.961C197.32 170.507 196.878 170.963 196.342 171.28C195.805 171.597 195.192 171.764 194.569 171.764Z" fill="#F4F4F4"/>
<path d="M175.643 165.034C175.663 164.534 175.83 164.051 176.123 163.645C176.415 163.239 176.821 162.929 177.289 162.751C177.757 162.574 178.266 162.538 178.755 162.648C179.243 162.759 179.688 163.01 180.034 163.371C180.381 163.732 180.613 164.187 180.703 164.679C180.793 165.171 180.736 165.679 180.54 166.14C180.344 166.6 180.016 166.992 179.599 167.268C179.181 167.544 178.691 167.69 178.191 167.69C177.847 167.69 177.507 167.62 177.191 167.485C176.875 167.35 176.59 167.152 176.352 166.904C176.114 166.656 175.929 166.363 175.807 166.042C175.685 165.72 175.629 165.378 175.643 165.034ZM176.227 151.908L176.087 148.089L180.321 148.092L180.177 151.91L179.582 160.698H176.809L176.227 151.908Z" fill="#00D0C4"/>
<path d="M295.173 166.77L265.111 166.75C264.54 166.75 263.978 166.596 263.486 166.304C262.994 166.013 262.59 165.594 262.314 165.093C262.039 164.592 261.904 164.026 261.922 163.454C261.94 162.883 262.111 162.326 262.418 161.844L277.464 138.136C277.753 137.681 278.152 137.307 278.624 137.048C279.096 136.788 279.625 136.653 280.164 136.653C280.702 136.653 281.232 136.79 281.703 137.05C282.175 137.31 282.573 137.685 282.861 138.14L297.876 161.868C298.182 162.351 298.352 162.908 298.37 163.48C298.387 164.051 298.25 164.617 297.974 165.118C297.698 165.619 297.292 166.037 296.799 166.328C296.307 166.618 295.745 166.771 295.173 166.77Z" fill="#F4F4F4"/>
<path d="M277.815 160.599C277.834 160.14 277.987 159.698 278.256 159.326C278.524 158.953 278.896 158.668 279.325 158.506C279.754 158.344 280.222 158.311 280.669 158.412C281.117 158.513 281.525 158.744 281.843 159.075C282.16 159.406 282.374 159.823 282.456 160.274C282.539 160.726 282.486 161.191 282.306 161.613C282.126 162.035 281.826 162.395 281.443 162.648C281.06 162.901 280.612 163.036 280.153 163.035C279.837 163.035 279.526 162.971 279.236 162.847C278.946 162.723 278.684 162.542 278.466 162.314C278.247 162.087 278.077 161.818 277.966 161.523C277.854 161.228 277.803 160.914 277.815 160.599ZM278.351 148.561L278.223 145.058L282.106 145.061L281.974 148.563L281.429 156.623H278.887L278.351 148.561Z" fill="#00D0C4"/>
<path d="M174.009 72.6469L138.683 72.623C138.011 72.6221 137.352 72.4409 136.774 72.0982C136.195 71.7556 135.72 71.2642 135.396 70.6752C135.073 70.0861 134.913 69.4211 134.934 68.7494C134.955 68.0777 135.156 67.424 135.516 66.8563L153.197 38.9965C153.537 38.4626 154.006 38.0231 154.56 37.7187C155.115 37.4143 155.737 37.255 156.37 37.2554C157.002 37.2558 157.625 37.416 158.179 37.7211C158.733 38.0262 159.201 38.4663 159.54 39.0007L177.184 66.8856C177.543 67.4536 177.742 68.1076 177.762 68.7791C177.782 69.4507 177.622 70.1154 177.298 70.7038C176.973 71.2923 176.497 71.7829 175.919 72.1247C175.34 72.4665 174.681 72.6468 174.009 72.6469Z" fill="#F4F4F4"/>
<path d="M153.611 65.3926C153.633 64.8538 153.813 64.3333 154.129 63.8959C154.444 63.4585 154.881 63.1235 155.386 62.9325C155.89 62.7416 156.44 62.7032 156.966 62.822C157.492 62.9409 157.971 63.2117 158.345 63.6009C158.718 63.9902 158.969 64.4806 159.065 65.0111C159.162 65.5417 159.101 66.089 158.889 66.585C158.677 67.081 158.324 67.5038 157.874 67.8008C157.424 68.0978 156.897 68.2559 156.357 68.2555C155.987 68.2549 155.62 68.1796 155.28 68.034C154.939 67.8885 154.632 67.6757 154.375 67.4084C154.119 67.1411 153.919 66.8248 153.788 66.4784C153.656 66.132 153.596 65.7627 153.611 65.3926ZM154.24 51.2468L154.089 47.132L158.652 47.1347L158.496 51.2499L157.856 60.7205H154.867L154.24 51.2468Z" fill="#00D0C4"/>
<path d="M258.394 102.067L225.35 102.045C224.721 102.044 224.104 101.875 223.563 101.555C223.022 101.234 222.577 100.775 222.275 100.224C221.972 99.6727 221.823 99.0505 221.843 98.4221C221.863 97.7938 222.051 97.1823 222.388 96.6515L238.929 70.5906C239.246 70.091 239.684 69.6796 240.203 69.3947C240.722 69.1098 241.304 68.9606 241.896 68.961C242.488 68.9614 243.07 69.1114 243.588 69.397C244.107 69.6827 244.544 70.0947 244.861 70.5948L261.366 96.6776C261.702 97.2091 261.889 97.821 261.908 98.4496C261.927 99.0782 261.777 99.7003 261.473 100.251C261.17 100.802 260.724 101.261 260.182 101.58C259.64 101.9 259.023 102.068 258.394 102.067Z" fill="#F4F4F4"/>
<path d="M239.313 95.2834C239.334 94.7794 239.503 94.2925 239.798 93.8834C240.093 93.4743 240.502 93.161 240.973 92.9825C241.445 92.8039 241.959 92.7679 242.451 92.8791C242.943 92.9902 243.392 93.2436 243.741 93.6076C244.09 93.9716 244.325 94.4303 244.415 94.9265C244.506 95.4228 244.449 95.9347 244.251 96.3987C244.053 96.8627 243.723 97.2582 243.302 97.5361C242.881 97.8141 242.387 97.9621 241.883 97.9619C241.536 97.9614 241.194 97.8909 240.875 97.7548C240.556 97.6186 240.268 97.4195 240.028 97.1694C239.788 96.9193 239.601 96.6234 239.479 96.2993C239.356 95.9752 239.3 95.6297 239.313 95.2834ZM239.902 82.05L239.762 78.2004L244.031 78.2034L243.885 82.0527L243.286 90.9129H240.49L239.902 82.05Z" fill="#00D0C4"/>
<path d="M210.628 84.2861C210.458 83.9496 210.188 83.6743 209.855 83.498C209.522 83.3218 209.142 83.2534 208.769 83.3023C208.772 83.2691 208.765 83.2357 208.748 83.2067C208.731 83.1844 208.708 83.167 208.682 83.1564C208.655 83.1457 208.627 83.1421 208.599 83.146L209.859 82.2427C210.236 81.9846 210.507 81.5988 210.622 81.1565C210.736 80.7142 210.687 80.2454 210.483 79.8366C210.268 79.4396 209.914 79.1365 209.488 78.986C209.063 78.8355 208.597 78.8484 208.18 79.0221C208.183 79.0043 208.171 78.9872 208.169 78.969L208.686 78.5976C209.04 78.353 209.299 77.9934 209.419 77.5799C209.539 77.1663 209.512 76.7241 209.343 76.3281C209.232 76.082 209.068 75.8635 208.862 75.6886C208.656 75.5137 208.414 75.3866 208.154 75.3164C207.893 75.2463 207.62 75.2349 207.354 75.2831C207.088 75.3313 206.837 75.4379 206.617 75.5951L205.422 76.4517C205.419 76.4445 205.422 76.4362 205.417 76.4297C205.412 76.4233 205.4 76.4206 205.393 76.4134C205.668 76.1047 205.829 75.7119 205.851 75.2995C205.872 74.887 205.753 74.4794 205.513 74.1436C204.949 73.2361 203.647 73.4227 202.874 73.9755L195.841 78.8316L197.098 76.7154C197.352 76.3081 197.441 75.8198 197.348 75.3493C197.255 74.8788 196.987 74.4611 196.598 74.1807C196.392 74.0429 196.16 73.9485 195.917 73.9033C195.673 73.858 195.423 73.8629 195.182 73.9175C194.941 73.9722 194.713 74.0755 194.513 74.2211C194.312 74.3668 194.144 74.5517 194.018 74.7646L187.154 86.3207C186.348 87.6764 186.103 89.2926 186.471 90.826C186.838 92.3593 187.789 93.689 189.121 94.5325C190.666 95.5108 192.468 96.0054 194.296 95.9529C196.124 95.9005 197.894 95.3034 199.381 94.2381L210.003 86.625C210.355 86.3623 210.609 85.9885 210.722 85.5641C210.835 85.1396 210.802 84.6893 210.628 84.2861Z" fill="#E2B5A3"/>
<g opacity="0.25">
<path d="M198.462 81.2548C198.488 81.29 198.527 81.3137 198.57 81.3208C198.613 81.3279 198.658 81.3178 198.694 81.2927L205.376 76.6642C205.396 76.6525 205.413 76.6368 205.427 76.6182C205.44 76.5995 205.45 76.5783 205.455 76.5558C205.46 76.5334 205.46 76.5101 205.455 76.4875C205.451 76.4649 205.442 76.4434 205.429 76.4244C205.416 76.4055 205.399 76.3893 205.38 76.3771C205.36 76.3649 205.338 76.3568 205.316 76.3533C205.293 76.3499 205.27 76.3511 205.247 76.357C205.225 76.3629 205.204 76.3733 205.186 76.3876L198.504 81.0161C198.467 81.0416 198.442 81.0805 198.434 81.1244C198.426 81.1683 198.436 81.2135 198.461 81.2502L198.462 81.2548Z" fill="#0C0C0C"/>
</g>
<g opacity="0.25">
<path d="M200.422 84.2584C200.448 84.2936 200.487 84.3173 200.53 84.3244C200.573 84.3315 200.617 84.3214 200.653 84.2963L208.111 79.1306C208.148 79.1051 208.173 79.0662 208.181 79.0223C208.189 78.9784 208.179 78.9332 208.154 78.8965C208.127 78.861 208.089 78.8369 208.045 78.829C208.002 78.8211 207.957 78.8301 207.92 78.854L200.462 84.0205C200.425 84.0459 200.4 84.0849 200.392 84.1287C200.384 84.1726 200.394 84.2179 200.419 84.2546L200.422 84.2584Z" fill="#0C0C0C"/>
</g>
<g opacity="0.25">
<path d="M202.526 87.5238C202.552 87.559 202.591 87.5827 202.634 87.5898C202.678 87.5969 202.722 87.5868 202.758 87.5617L208.707 83.4412C208.742 83.415 208.765 83.3764 208.772 83.3333C208.779 83.2903 208.769 83.2462 208.744 83.2104C208.719 83.1746 208.682 83.1498 208.639 83.1413C208.596 83.1327 208.552 83.1411 208.515 83.1646L202.566 87.2851C202.548 87.2977 202.532 87.3138 202.52 87.3324C202.508 87.351 202.5 87.3717 202.496 87.3935C202.492 87.4152 202.493 87.4375 202.498 87.4591C202.502 87.4807 202.511 87.5011 202.524 87.5192L202.526 87.5238Z" fill="#0C0C0C"/>
</g>
<path d="M184.127 82.1558L167.041 121.609L143.469 89.3467L123.042 107.763L157.926 152.942L158.154 153.263C159.55 155.176 161.41 156.701 163.559 157.696C165.708 158.691 168.075 159.122 170.436 158.949C172.798 158.776 175.076 158.005 177.058 156.708C179.039 155.411 180.657 153.631 181.76 151.535L206.327 94.5033L184.127 82.1558Z" fill="#00D0C4"/>
<path d="M165.066 125.737C165.022 125.737 164.979 125.726 164.941 125.705C164.903 125.683 164.871 125.652 164.848 125.615C164.825 125.578 164.812 125.535 164.81 125.491C164.809 125.447 164.818 125.404 164.838 125.365L166.815 121.493C166.848 121.436 166.901 121.395 166.964 121.376C167.027 121.358 167.094 121.364 167.152 121.394C167.211 121.424 167.255 121.475 167.277 121.536C167.299 121.598 167.296 121.666 167.27 121.726L165.294 125.598C165.272 125.64 165.24 125.675 165.199 125.7C165.159 125.724 165.113 125.737 165.066 125.737Z" fill="#0C0C0C"/>
<path d="M81.3586 44.0207C81.3586 44.0207 79.1256 55.9198 75.9069 59.9489C66.6405 71.5478 62.7045 85.3727 69.6043 93.6657C76.5041 101.959 126.112 107.994 131.896 91.5074C136.765 77.6275 130.157 75.2825 129.911 63.3231C129.799 57.9115 129.076 46.5061 129.076 46.5061" fill="#0C0C0C"/>
<path d="M121.604 85.219C121.518 85.208 120.56 101.092 102.108 99.707C89.3332 98.7502 84.7787 85.1966 84.4858 85.1966C85.863 84.9037 88.1825 84.4781 88.7941 84.1518C90.8048 83.0709 93.2947 81.9464 93.943 78.0399C94.3167 75.7882 93.6828 64.2681 93.8778 61.9918L113.486 66.3688C113.213 71.1798 111.295 82.333 118.016 84.3073C119.135 84.6336 120.34 84.9341 121.604 85.219Z" fill="#E2B5A3"/>
<path opacity="0.52" d="M113.762 79.749C113.454 78.7591 113.257 77.7386 113.172 76.7056C112.956 74.3484 112.999 71.9748 113.3 69.627C109.314 69.089 105.56 67.444 102.462 64.879C102.098 66.2235 100.096 72.0995 100.65 73.3772C101.698 75.7932 106.623 79.749 113.762 79.749Z" fill="#0C0C0C"/>
<path d="M110.281 75.9111C102.516 75.7362 92.951 71.4784 92.1156 61.0096L91.3622 51.5629C90.5275 41.0945 95.3479 32.169 105.204 31.3825C115.061 30.5961 123.105 38.4949 123.94 48.9633L124.274 53.1453C124.595 57.1626 124.135 76.2234 110.281 75.9111Z" fill="#E2B5A3"/>
<path opacity="0.52" d="M114.87 62.0161H114.89C115.289 61.981 115.687 61.9241 116.08 61.8457C116.668 61.7243 117.446 61.5024 117.402 60.9788C117.355 60.3824 115.208 54.0767 114.963 53.3596C114.94 53.2986 114.894 53.2489 114.836 53.221C114.777 53.1931 114.71 53.1892 114.648 53.2102C114.586 53.2312 114.535 53.2755 114.506 53.3335C114.477 53.3915 114.471 53.4587 114.49 53.5209C115.407 56.2065 116.873 60.6154 116.905 61.0187C116.821 61.1939 115.841 61.439 114.85 61.5183C114.786 61.5234 114.726 61.5532 114.683 61.6015C114.64 61.6498 114.617 61.7129 114.62 61.7775C114.623 61.842 114.65 61.903 114.697 61.9477C114.744 61.9923 114.806 62.0171 114.87 62.0168V62.0161Z" fill="#0C0C0C"/>
<path opacity="0.52" d="M113.259 64.7097C111.661 64.7399 110.093 65.1451 108.68 65.8927C108.621 65.9224 108.577 65.9745 108.556 66.0373C108.535 66.1001 108.54 66.1686 108.57 66.2277C108.6 66.2867 108.652 66.3315 108.715 66.3522C108.778 66.3729 108.846 66.3678 108.905 66.3381C111.953 64.8008 114.811 64.8141 117.169 66.376C117.217 66.4089 117.266 66.4395 117.317 66.4674C117.376 66.4951 117.444 66.4984 117.506 66.4766C117.567 66.4549 117.618 66.4099 117.647 66.3512C117.675 66.2926 117.68 66.225 117.66 66.1629C117.639 66.1009 117.595 66.0493 117.537 66.0194C117.519 66.0091 117.488 65.9883 117.445 65.9598C116.205 65.1358 114.748 64.7006 113.259 64.7097Z" fill="#0C0C0C"/>
<path d="M83.2866 53.9568L92.1167 53.3027C98.9607 51.3561 102.168 40.2173 102.168 40.2173C102.168 40.2173 109.297 48.84 129.076 46.506C129.076 46.506 128.109 19.1674 98.7464 23.9204C89.2785 25.4527 81.6795 34.0079 81.1662 46.4814C80.8081 55.2228 83.2866 53.9568 83.2866 53.9568Z" fill="#0C0C0C"/>
<path d="M92.9824 64.1501C89.9853 64.3892 87.3031 61.3783 87.0641 58.3835C86.8251 55.3886 89.1215 53.5421 92.1167 53.3031L93.8209 55.1871L95.5581 63.9453L92.9824 64.1501Z" fill="#E2B5A3"/>
<path d="M117.261 48.6435C118.177 48.183 119.2 47.9773 120.222 48.0479C120.726 48.0796 121.222 48.1869 121.694 48.3662C122.162 48.5414 122.605 48.7749 123.015 49.0612C123.071 49.0986 123.111 49.1567 123.126 49.2231C123.14 49.2895 123.128 49.3589 123.093 49.4166C123.057 49.4743 123 49.5157 122.934 49.532C122.868 49.5482 122.798 49.538 122.739 49.5036L122.722 49.4933C122.341 49.2523 121.931 49.0601 121.502 48.9212C121.079 48.7816 120.637 48.7069 120.191 48.6997C119.307 48.6785 118.434 48.8916 117.659 49.3173L117.634 49.3317C117.544 49.3808 117.438 49.3926 117.339 49.3647C117.241 49.3368 117.157 49.2714 117.106 49.1825C117.055 49.0936 117.041 48.9882 117.067 48.8891C117.093 48.79 117.157 48.7049 117.245 48.6522L117.261 48.6435Z" fill="#0C0C0C"/>
<path d="M109.342 49.6287C108.511 49.3278 107.615 49.2521 106.745 49.4091C106.306 49.4849 105.88 49.6269 105.483 49.8302C105.081 50.0334 104.706 50.2866 104.367 50.5837L104.352 50.5958C104.326 50.6182 104.296 50.6353 104.263 50.6461C104.231 50.6569 104.197 50.6612 104.162 50.6588C104.128 50.6563 104.095 50.6472 104.064 50.6319C104.034 50.6165 104.006 50.5953 103.984 50.5694C103.962 50.5436 103.944 50.5135 103.934 50.481C103.923 50.4485 103.919 50.4142 103.921 50.3801C103.923 50.3459 103.933 50.3126 103.948 50.282C103.963 50.2513 103.984 50.224 104.01 50.2016C104.371 49.8557 104.773 49.5566 105.208 49.3112C105.646 49.0615 106.119 48.8791 106.612 48.7702C107.611 48.5422 108.654 48.5876 109.63 48.9018C109.729 48.9344 109.81 49.0048 109.857 49.0975C109.904 49.1903 109.912 49.2978 109.879 49.3964C109.847 49.495 109.776 49.5766 109.683 49.6233C109.591 49.67 109.483 49.678 109.385 49.6454L109.369 49.6397L109.342 49.6287Z" fill="#0C0C0C"/>
<path d="M92.1475 53.1954L92.0875 52.9461C103.483 50.1906 101.961 39.1364 101.945 39.0226L102.198 38.9847C102.215 39.1012 103.774 50.3837 92.1475 53.1954Z" fill="#0C0C0C"/>
<path opacity="0.1" d="M107.004 61.9319C108.285 61.9319 109.324 61.1699 109.324 60.2299C109.324 59.29 108.285 58.528 107.004 58.528C105.723 58.528 104.684 59.29 104.684 60.2299C104.684 61.1699 105.723 61.9319 107.004 61.9319Z" fill="#0C0C0C"/>
<path opacity="0.1" d="M120.795 59.8232C120.798 60.7622 121.836 61.5236 123.117 61.5255C123.339 61.5254 123.559 61.5024 123.776 61.4569C123.966 60.3604 124.097 59.2997 124.182 58.3133C123.842 58.184 123.48 58.1197 123.116 58.1236C121.834 58.1198 120.795 58.8812 120.795 59.8232Z" fill="#0C0C0C"/>
<path d="M144.53 120.189C143.949 127.018 141.121 169.618 140.563 178.029H63.5483C63.1135 170.441 61.1582 137.272 59.5101 122.438C57.9353 108.283 54.8437 101.196 57.1102 97.0115C60.811 90.1719 66.1258 84.0035 76.3159 83.1506C80.5506 82.7963 88.3639 84.3074 88.3639 84.3074C88.3639 84.3074 88.9 95.1551 101.687 95.7591C119.093 96.5801 117.936 84.3369 118.017 84.3074C121.605 82.9954 133.615 80.8929 139.115 84.5244C149.607 91.4531 145.764 105.718 144.53 120.189Z" fill="#00D0C4"/>
<path d="M119.577 53.6222C120.249 53.6222 120.795 53.0769 120.795 52.4044C120.795 51.7318 120.249 51.1865 119.577 51.1865C118.904 51.1865 118.359 51.7318 118.359 52.4044C118.359 53.0769 118.904 53.6222 119.577 53.6222Z" fill="#0C0C0C"/>
<path d="M107.637 54.0206C108.31 54.0206 108.855 53.4753 108.855 52.8027C108.855 52.1301 108.31 51.5849 107.637 51.5849C106.965 51.5849 106.419 52.1301 106.419 52.8027C106.419 53.4753 106.965 54.0206 107.637 54.0206Z" fill="#0C0C0C"/>
<path d="M143.942 124.62L143.327 135.464L143.838 135.493L144.453 124.649L143.942 124.62Z" fill="#0C0C0C"/>
<path d="M0.245491 89.0743C0.445383 88.7552 0.739445 88.506 1.08706 88.3611C1.43467 88.2163 1.81867 88.183 2.18602 88.2658C2.18605 88.2324 2.19639 88.1998 2.21562 88.1725C2.23489 88.1518 2.25929 88.1366 2.28634 88.1284C2.3134 88.1202 2.34214 88.1193 2.36965 88.1258L1.19812 87.1102C0.846154 86.8188 0.611596 86.4098 0.53781 85.9589C0.464024 85.5079 0.556 85.0455 0.796732 84.6571C1.04715 84.2811 1.42838 84.0117 1.86635 83.901C2.30433 83.7904 2.7678 83.8465 3.16672 84.0584C3.16672 84.0402 3.17849 84.0243 3.18304 84.0065L2.7016 83.5891C2.37137 83.3129 2.14672 82.9311 2.0657 82.5082C1.98467 82.0854 2.05224 81.6475 2.25697 81.2688C2.39021 81.034 2.57389 80.8317 2.79475 80.6765C3.01562 80.5213 3.26817 80.417 3.53421 80.3711C3.80025 80.3253 4.07315 80.3391 4.33323 80.4114C4.5933 80.4838 4.83408 80.613 5.03821 80.7896L6.14942 81.7529C6.15359 81.7461 6.14942 81.7373 6.15625 81.7313C6.16307 81.7252 6.17446 81.7241 6.18204 81.7172C5.93725 81.3846 5.81278 80.9787 5.82905 80.5661C5.84532 80.1534 6.00136 79.7585 6.27158 79.4462C6.91653 78.5945 8.19618 78.8992 8.91473 79.5221L15.4704 85.0069L14.4135 82.7837C14.1989 82.3548 14.1551 81.8605 14.2909 81.4005C14.4267 80.9406 14.7321 80.5494 15.1453 80.3059C15.3629 80.1877 15.6024 80.1151 15.849 80.0925C16.0956 80.0699 16.3442 80.0978 16.5797 80.1745C16.8152 80.2512 17.0326 80.3751 17.2186 80.5386C17.4047 80.702 17.5554 80.9017 17.6617 81.1254L23.4325 93.2658C24.1096 94.6898 24.2048 96.3218 23.6977 97.8148C23.1907 99.3079 22.1215 100.544 20.7173 101.262C19.0887 102.094 17.2489 102.42 15.4335 102.199C13.6182 101.979 11.9101 101.221 10.5282 100.023L0.653326 91.4625C0.326156 91.1687 0.107855 90.7729 0.0338273 90.3394C-0.0402006 89.9059 0.0343863 89.4601 0.245491 89.0743Z" fill="#E2B5A3"/>
<g opacity="0.25">
<path d="M12.6391 87.1747C12.61 87.2076 12.5692 87.2278 12.5254 87.2311C12.4816 87.2344 12.4383 87.2204 12.4046 87.1922L6.17672 81.968C6.1445 81.9388 6.12486 81.8982 6.12191 81.8547C6.11896 81.8113 6.13292 81.7685 6.16088 81.7351C6.18883 81.7018 6.22861 81.6805 6.27187 81.6758C6.31514 81.6712 6.35853 81.6834 6.39296 81.71L12.6209 86.9346C12.6551 86.9633 12.6765 87.0043 12.6804 87.0488C12.6843 87.0933 12.6704 87.1375 12.6417 87.1717L12.6391 87.1747Z" fill="#0C0C0C"/>
</g>
<g opacity="0.25">
<path d="M10.411 89.9848C10.382 90.0179 10.3412 90.0382 10.2974 90.0416C10.2536 90.0449 10.2102 90.0309 10.1765 90.0026L3.22477 84.1722C3.19064 84.1435 3.16932 84.1024 3.16548 84.0579C3.16164 84.0135 3.1756 83.9693 3.20428 83.9351C3.23376 83.9023 3.27463 83.8819 3.3186 83.8781C3.36257 83.8743 3.40633 83.8873 3.44102 83.9146L10.3917 89.745C10.4086 89.7592 10.4225 89.7766 10.4327 89.7962C10.4429 89.8158 10.4492 89.8372 10.4511 89.8592C10.453 89.8812 10.4505 89.9033 10.4438 89.9244C10.4372 89.9454 10.4264 89.9649 10.4121 89.9818L10.411 89.9848Z" fill="#0C0C0C"/>
</g>
<g opacity="0.25">
<path d="M8.01486 93.0427C7.98582 93.0757 7.94506 93.096 7.90126 93.0993C7.85746 93.1026 7.81409 93.0887 7.7804 93.0605L2.23613 88.4096C2.20197 88.381 2.1806 88.3399 2.17672 88.2955C2.17285 88.251 2.18678 88.2069 2.21545 88.1727C2.24413 88.1386 2.2852 88.1172 2.32963 88.1133C2.37407 88.1094 2.41822 88.1234 2.45238 88.152L7.99703 92.8026C8.03107 92.8314 8.05232 92.8725 8.05616 92.9169C8.06 92.9613 8.04611 93.0055 8.01752 93.0397L8.01486 93.0427Z" fill="#0C0C0C"/>
</g>
<path d="M26.1413 88.5648L39.129 121.872L58.092 95.2439L78.5186 113.66L49.2683 158.326L49.0407 158.648C47.6444 160.561 45.7841 162.086 43.6353 163.081C41.4865 164.075 39.1198 164.507 36.7582 164.334C34.3967 164.161 32.118 163.39 30.1369 162.093C28.1558 160.796 26.5375 159.016 25.4345 156.92L4.45129 100.4L26.1413 88.5648Z" fill="#00D0C4"/>
<path d="M41.1052 126.001C41.149 126.001 41.1921 125.989 41.2303 125.968C41.2685 125.946 41.3005 125.916 41.3233 125.878C41.3462 125.841 41.359 125.798 41.3607 125.754C41.3624 125.711 41.3528 125.667 41.3329 125.628L39.3567 121.756C39.323 121.7 39.2696 121.66 39.2073 121.642C39.145 121.625 39.0783 121.631 39.0206 121.661C38.9629 121.69 38.9186 121.741 38.8965 121.802C38.8744 121.862 38.8761 121.929 38.9014 121.989L40.8776 125.861C40.899 125.903 40.9316 125.938 40.9717 125.963C41.0119 125.988 41.0581 126.001 41.1052 126.001Z" fill="#0C0C0C"/>
<path d="M61.0823 140.585C61.0073 140.585 60.935 140.556 60.8799 140.506C60.8248 140.455 60.7909 140.385 60.7849 140.31L59.9738 130.288C59.9674 130.209 59.9926 130.131 60.0439 130.07C60.0952 130.01 60.1684 129.973 60.2473 129.966C60.3262 129.96 60.4045 129.985 60.4648 130.036C60.5251 130.088 60.5626 130.161 60.569 130.24L61.3801 140.262C61.3833 140.301 61.3787 140.34 61.3667 140.378C61.3547 140.415 61.3354 140.45 61.31 140.479C61.2846 140.509 61.2536 140.534 61.2187 140.552C61.1838 140.57 61.1457 140.58 61.1066 140.584L61.0823 140.585Z" fill="#292929"/>
<path d="M273.218 98.1941H272.459V26.0685H195.203V25.3098H273.218V98.1941Z" fill="#00D0C4"/>
<path d="M269.108 3.94804L246.491 43.1227C246.113 43.7776 245.914 44.5204 245.914 45.2766C245.914 46.0327 246.113 46.7755 246.491 47.4304C246.869 48.0852 247.413 48.6291 248.068 49.0072C248.723 49.3853 249.465 49.5844 250.222 49.5844H295.456C296.212 49.5844 296.955 49.3853 297.61 49.0072C298.264 48.6291 298.808 48.0852 299.186 47.4304C299.564 46.7755 299.763 46.0327 299.763 45.2766C299.763 44.5204 299.564 43.7776 299.186 43.1227L276.569 3.94804C276.191 3.29327 275.647 2.74955 274.992 2.37153C274.337 1.99351 273.595 1.79449 272.839 1.79449C272.082 1.79449 271.34 1.99351 270.685 2.37153C270.03 2.74955 269.486 3.29327 269.108 3.94804Z" fill="#F4F4F4"/>
<path d="M295.456 49.9634H250.222C249.399 49.9635 248.591 49.747 247.878 49.3357C247.166 48.9243 246.574 48.3326 246.162 47.62C245.751 46.9075 245.534 46.0991 245.534 45.2763C245.534 44.4535 245.751 43.6452 246.163 42.9326L268.78 3.75833C269.191 3.04563 269.783 2.45377 270.495 2.04227C271.208 1.63077 272.016 1.41412 272.839 1.41412C273.662 1.41412 274.47 1.63077 275.183 2.04227C275.895 2.45377 276.487 3.04563 276.898 3.75833L299.515 42.933C299.926 43.6456 300.143 44.4539 300.143 45.2766C300.143 46.0994 299.926 46.9077 299.515 47.6202C299.103 48.3328 298.512 48.9245 297.799 49.3358C297.087 49.7472 296.278 49.9638 295.456 49.9638L295.456 49.9634ZM272.839 2.17363C272.148 2.16942 271.469 2.34915 270.871 2.69434C270.273 3.03953 269.778 3.53772 269.436 4.13772L246.82 43.3124C246.475 43.9096 246.294 44.587 246.294 45.2766C246.293 45.9662 246.475 46.6437 246.82 47.2409C247.165 47.8381 247.66 48.334 248.258 48.6788C248.855 49.0236 249.532 49.2051 250.222 49.205H295.456C296.145 49.205 296.823 49.0234 297.42 48.6786C298.017 48.3338 298.513 47.8379 298.858 47.2407C299.202 46.6435 299.384 45.9661 299.384 45.2766C299.384 44.587 299.203 43.9096 298.858 43.3124L276.241 4.13772C275.899 3.5378 275.404 3.03967 274.806 2.69449C274.208 2.34931 273.529 2.16953 272.839 2.17363Z" fill="#292929"/>
<path d="M269.839 38.0257C269.863 37.4367 270.06 36.8677 270.404 36.3894C270.749 35.9111 271.226 35.5447 271.778 35.3357C272.329 35.1267 272.929 35.0844 273.504 35.2139C274.079 35.3435 274.604 35.6392 275.012 36.0643C275.42 36.4895 275.695 37.0253 275.801 37.6051C275.907 38.1849 275.841 38.7832 275.61 39.3255C275.379 39.8678 274.993 40.3303 274.501 40.6553C274.01 40.9803 273.433 41.1537 272.844 41.1537C272.439 41.1534 272.038 41.0714 271.665 40.9125C271.293 40.7536 270.956 40.5212 270.676 40.2291C270.395 39.937 270.177 39.5913 270.033 39.2127C269.889 38.8341 269.823 38.4303 269.839 38.0257ZM270.517 22.56L270.349 18.0616H275.339L275.171 22.56L274.477 32.9149H271.21L270.517 22.56Z" fill="#00D0C4"/>
<path d="M305.002 146.425H240.676C238.755 146.425 238.323 144.187 238.939 143.008L242.986 137.607C243.136 137.319 243.362 137.078 243.639 136.91C243.916 136.742 244.235 136.653 244.559 136.653H301.119C301.443 136.653 301.761 136.742 302.038 136.91C302.316 137.078 302.542 137.319 302.692 137.607L306.739 143.008C307.355 144.189 306.923 146.425 305.002 146.425Z" fill="#292929"/>
<path d="M243.933 97.4907V132.897C243.933 134.268 245.044 135.379 246.415 135.379H299.262C300.633 135.379 301.744 134.268 301.744 132.897V97.4907C301.744 96.1201 300.633 95.0091 299.262 95.0091H246.415C245.044 95.0091 243.933 96.1201 243.933 97.4907Z" fill="#292929"/>
<path d="M300.182 98.0799V132.308C300.182 132.732 300.014 133.139 299.714 133.439C299.414 133.738 299.008 133.907 298.584 133.907H247.004C246.791 133.907 246.581 133.865 246.385 133.784C246.189 133.702 246.01 133.583 245.86 133.433C245.71 133.283 245.591 133.105 245.509 132.908C245.428 132.712 245.386 132.502 245.386 132.29V98.0988C245.386 97.8864 245.428 97.6761 245.509 97.4799C245.591 97.2837 245.71 97.1054 245.86 96.9552C246.01 96.805 246.189 96.6859 246.385 96.6046C246.581 96.5233 246.791 96.4815 247.004 96.4815H298.584C299.008 96.4815 299.414 96.6499 299.714 96.9496C300.014 97.2494 300.182 97.6559 300.182 98.0799Z" fill="#F4F4F4"/>
<path d="M305.002 145.151H240.676C240.371 145.151 240.071 145.073 239.805 144.923C239.539 144.774 239.317 144.558 239.158 144.297C239 144.036 238.912 143.739 238.902 143.434C238.893 143.129 238.962 142.827 239.103 142.557L242.986 136.333C243.136 136.045 243.362 135.804 243.639 135.636C243.916 135.468 244.235 135.379 244.559 135.379H301.119C301.443 135.379 301.761 135.468 302.038 135.636C302.316 135.804 302.542 136.045 302.692 136.333L306.575 142.557C306.716 142.827 306.785 143.129 306.775 143.434C306.765 143.739 306.677 144.036 306.519 144.297C306.361 144.558 306.138 144.774 305.873 144.923C305.607 145.073 305.307 145.151 305.002 145.151Z" fill="#292929"/>
<path opacity="0.1" d="M305.002 145.151H240.676C240.371 145.151 240.071 145.073 239.805 144.923C239.539 144.774 239.317 144.558 239.158 144.297C239 144.036 238.912 143.739 238.902 143.434C238.893 143.129 238.962 142.827 239.103 142.557L242.986 136.333C243.136 136.045 243.362 135.804 243.639 135.636C243.916 135.468 244.235 135.379 244.559 135.379H301.119C301.443 135.379 301.761 135.468 302.038 135.636C302.316 135.804 302.542 136.045 302.692 136.333L306.575 142.557C306.716 142.827 306.785 143.129 306.775 143.434C306.765 143.739 306.677 144.036 306.519 144.297C306.361 144.558 306.138 144.774 305.873 144.923C305.607 145.073 305.307 145.151 305.002 145.151Z" fill="#F4F4F4"/>
<path d="M271.039 103.648L260.129 122.546C259.946 122.862 259.85 123.22 259.85 123.585C259.851 123.95 259.947 124.308 260.129 124.624C260.311 124.94 260.574 125.202 260.89 125.384C261.205 125.567 261.564 125.663 261.928 125.663H283.749C284.114 125.663 284.472 125.567 284.788 125.384C285.104 125.202 285.366 124.94 285.548 124.624C285.731 124.308 285.827 123.95 285.827 123.585C285.827 123.22 285.731 122.862 285.549 122.546L274.638 103.648C274.456 103.332 274.193 103.07 273.878 102.888C273.562 102.705 273.203 102.609 272.839 102.609C272.474 102.609 272.116 102.705 271.8 102.888C271.484 103.07 271.222 103.332 271.039 103.648Z" fill="#00D0C4"/>
<path d="M271.392 120.087C271.403 119.803 271.498 119.528 271.664 119.297C271.83 119.067 272.061 118.89 272.327 118.789C272.593 118.688 272.883 118.668 273.16 118.73C273.438 118.793 273.691 118.935 273.888 119.14C274.085 119.346 274.217 119.604 274.268 119.884C274.32 120.164 274.287 120.452 274.176 120.714C274.065 120.976 273.879 121.199 273.641 121.356C273.404 121.513 273.126 121.596 272.841 121.596C272.646 121.596 272.453 121.556 272.273 121.48C272.093 121.403 271.931 121.291 271.795 121.15C271.66 121.009 271.555 120.842 271.485 120.66C271.416 120.477 271.384 120.282 271.392 120.087ZM271.719 112.626L271.637 110.455H274.044L273.964 112.626L273.63 117.622H272.054L271.719 112.626Z" fill="#F4F4F4"/>
<path d="M209.564 1.08667H153.795V47.0065H209.564V1.08667Z" fill="#F4F4F4"/>
<path d="M209.564 47.3858H153.795C153.695 47.3858 153.598 47.3459 153.527 47.2747C153.456 47.2036 153.416 47.1071 153.416 47.0065V1.08666C153.416 0.986042 153.456 0.889544 153.527 0.818395C153.598 0.747246 153.695 0.707275 153.795 0.707275H209.564C209.665 0.707275 209.762 0.747246 209.833 0.818395C209.904 0.889544 209.944 0.986042 209.944 1.08666V47.0065C209.944 47.1071 209.904 47.2036 209.833 47.2747C209.762 47.3459 209.665 47.3858 209.564 47.3858ZM154.175 46.6271H209.185V1.46605H154.175V46.6271Z" fill="#292929"/>
<path d="M207.527 3.06104H166.301V15.4586H207.527V3.06104Z" fill="#00D0C4"/>
<g opacity="0.69">
<path d="M207.527 3.06104H166.301V15.4586H207.527V3.06104Z" fill="#F4F4F4"/>
</g>
<path d="M207.528 15.665H166.302C166.275 15.665 166.248 15.6597 166.223 15.6494C166.198 15.639 166.175 15.6238 166.156 15.6047C166.136 15.5855 166.121 15.5627 166.111 15.5377C166.1 15.5126 166.095 15.4857 166.095 15.4586V3.05949C166.095 3.03232 166.1 3.00541 166.111 2.9803C166.121 2.95519 166.136 2.93238 166.155 2.91317C166.175 2.89396 166.197 2.87873 166.223 2.86836C166.248 2.85799 166.275 2.85267 166.302 2.85272H207.528C207.582 2.85272 207.635 2.87451 207.674 2.91328C207.713 2.95206 207.734 3.00465 207.734 3.05949V15.4586C207.734 15.4857 207.729 15.5126 207.719 15.5377C207.708 15.5627 207.693 15.5855 207.674 15.6047C207.655 15.6238 207.632 15.639 207.607 15.6494C207.582 15.6597 207.555 15.665 207.528 15.665ZM166.51 15.2518H207.321V3.26777H166.51V15.2518Z" fill="#292929"/>
<path d="M172.564 11.8032C173.969 11.8032 175.108 10.6645 175.108 9.25984C175.108 7.85515 173.969 6.71643 172.564 6.71643C171.16 6.71643 170.021 7.85515 170.021 9.25984C170.021 10.6645 171.16 11.8032 172.564 11.8032Z" fill="#F4F4F4"/>
<path d="M172.564 12.0096C172.02 12.0096 171.489 11.8483 171.036 11.5461C170.584 11.2439 170.232 10.8144 170.023 10.3119C169.815 9.80937 169.761 9.2564 169.867 8.72292C169.973 8.18944 170.235 7.6994 170.62 7.31479C171.004 6.93017 171.494 6.66824 172.028 6.56212C172.561 6.45601 173.114 6.51047 173.617 6.71862C174.119 6.92678 174.549 7.27927 174.851 7.73154C175.153 8.1838 175.314 8.71552 175.314 9.25945C175.314 9.9886 175.024 10.6876 174.508 11.2032C173.992 11.7188 173.293 12.0088 172.564 12.0096ZM172.564 6.92319C172.102 6.92319 171.65 7.06024 171.266 7.31701C170.882 7.57378 170.582 7.93874 170.405 8.36572C170.229 8.79271 170.182 9.26255 170.273 9.71583C170.363 10.1691 170.585 10.5854 170.912 10.9122C171.239 11.239 171.655 11.4615 172.109 11.5516C172.562 11.6417 173.032 11.5954 173.459 11.4185C173.886 11.2416 174.251 10.942 174.507 10.5577C174.764 10.1734 174.901 9.72161 174.901 9.25945C174.9 8.63999 174.654 8.0461 174.216 7.60811C173.778 7.17011 173.184 6.92379 172.564 6.92319Z" fill="#292929"/>
<path d="M195.988 9.21126H178.389C178.334 9.21126 178.281 9.18948 178.243 9.1507C178.204 9.11192 178.182 9.05933 178.182 9.0045C178.182 8.94966 178.204 8.89707 178.243 8.85829C178.281 8.81951 178.334 8.79773 178.389 8.79773H195.988C196.015 8.79773 196.042 8.80308 196.067 8.81347C196.092 8.82386 196.115 8.83909 196.134 8.85829C196.154 8.87749 196.169 8.90028 196.179 8.92537C196.19 8.95046 196.195 8.97734 196.195 9.0045C196.195 9.03165 196.19 9.05853 196.179 9.08362C196.169 9.10871 196.154 9.1315 196.134 9.1507C196.115 9.1699 196.092 9.18513 196.067 9.19552C196.042 9.20591 196.015 9.21126 195.988 9.21126Z" fill="#292929"/>
<path d="M200.636 9.21126H199.98C199.925 9.21126 199.872 9.18948 199.834 9.1507C199.795 9.11192 199.773 9.05933 199.773 9.0045C199.773 8.94966 199.795 8.89707 199.834 8.85829C199.872 8.81951 199.925 8.79773 199.98 8.79773H200.636C200.691 8.79773 200.743 8.81951 200.782 8.85829C200.821 8.89707 200.843 8.94966 200.843 9.0045C200.843 9.05933 200.821 9.11192 200.782 9.1507C200.743 9.18948 200.691 9.21126 200.636 9.21126Z" fill="#292929"/>
<path d="M198.332 9.21126H197.676C197.622 9.21126 197.569 9.18948 197.53 9.1507C197.492 9.11192 197.47 9.05933 197.47 9.0045C197.47 8.94966 197.492 8.89707 197.53 8.85829C197.569 8.81951 197.622 8.79773 197.676 8.79773H198.332C198.36 8.79773 198.386 8.80308 198.412 8.81347C198.437 8.82386 198.459 8.83909 198.479 8.85829C198.498 8.87749 198.513 8.90028 198.523 8.92537C198.534 8.95046 198.539 8.97734 198.539 9.0045C198.539 9.03165 198.534 9.05853 198.523 9.08362C198.513 9.10871 198.498 9.1315 198.479 9.1507C198.459 9.1699 198.437 9.18513 198.412 9.19552C198.386 9.20591 198.36 9.21126 198.332 9.21126Z" fill="#292929"/>
<path d="M203.097 9.21126H202.441C202.386 9.21126 202.333 9.18948 202.295 9.1507C202.256 9.11192 202.234 9.05933 202.234 9.0045C202.234 8.94966 202.256 8.89707 202.295 8.85829C202.333 8.81951 202.386 8.79773 202.441 8.79773H203.097C203.124 8.79773 203.151 8.80308 203.176 8.81347C203.201 8.82386 203.224 8.83909 203.243 8.85829C203.263 8.87749 203.278 8.90028 203.288 8.92537C203.299 8.95046 203.304 8.97734 203.304 9.0045C203.304 9.03165 203.299 9.05853 203.288 9.08362C203.278 9.10871 203.263 9.1315 203.243 9.1507C203.224 9.1699 203.201 9.18513 203.176 9.19552C203.151 9.20591 203.124 9.21126 203.097 9.21126Z" fill="#292929"/>
<path d="M207.527 17.6287H166.301V30.0263H207.527V17.6287Z" fill="#00D0C4"/>
<g opacity="0.69">
<path d="M207.527 17.6287H166.301V30.0263H207.527V17.6287Z" fill="#F4F4F4"/>
</g>
<path d="M207.528 30.2326H166.302C166.275 30.2327 166.248 30.2274 166.223 30.217C166.198 30.2067 166.175 30.1915 166.156 30.1723C166.136 30.1532 166.121 30.1304 166.111 30.1053C166.1 30.0803 166.095 30.0534 166.095 30.0263V17.6279C166.095 17.6007 166.1 17.5738 166.111 17.5487C166.121 17.5236 166.136 17.5008 166.155 17.4816C166.175 17.4624 166.197 17.4472 166.223 17.4368C166.248 17.4264 166.275 17.4211 166.302 17.4211H207.528C207.555 17.4211 207.582 17.4265 207.607 17.4369C207.632 17.4473 207.655 17.4625 207.674 17.4817C207.693 17.5009 207.708 17.5237 207.719 17.5488C207.729 17.5739 207.734 17.6008 207.734 17.6279V30.0263C207.734 30.0534 207.729 30.0803 207.719 30.1053C207.708 30.1304 207.693 30.1532 207.674 30.1723C207.655 30.1915 207.632 30.2067 207.607 30.217C207.582 30.2274 207.555 30.2327 207.528 30.2326ZM166.51 29.8195H207.321V17.8354H166.51V29.8195Z" fill="#292929"/>
<path d="M172.564 26.3709C173.969 26.3709 175.108 25.2322 175.108 23.8275C175.108 22.4228 173.969 21.2841 172.564 21.2841C171.16 21.2841 170.021 22.4228 170.021 23.8275C170.021 25.2322 171.16 26.3709 172.564 26.3709Z" fill="#F4F4F4"/>
<path d="M172.564 26.5773C172.02 26.5773 171.489 26.4159 171.036 26.1137C170.584 25.8115 170.232 25.382 170.023 24.8794C169.815 24.3769 169.761 23.8239 169.867 23.2904C169.973 22.7569 170.235 22.2669 170.62 21.8823C171.004 21.4977 171.494 21.2358 172.028 21.1297C172.561 21.0236 173.114 21.0781 173.617 21.2864C174.119 21.4946 174.549 21.8471 174.851 22.2994C175.153 22.7518 175.314 23.2835 175.314 23.8275C175.313 24.5565 175.023 25.2555 174.508 25.771C173.992 26.2865 173.293 26.5764 172.564 26.5773ZM172.564 21.4908C172.102 21.4908 171.65 21.6279 171.266 21.8846C170.882 22.1414 170.582 22.5063 170.405 22.9333C170.229 23.3602 170.182 23.83 170.273 24.2833C170.363 24.7366 170.585 25.1529 170.912 25.4797C171.239 25.8065 171.655 26.029 172.108 26.1192C172.562 26.2094 173.031 26.1631 173.458 25.9862C173.885 25.8094 174.25 25.5099 174.507 25.1256C174.764 24.7414 174.901 24.2896 174.901 23.8275C174.9 23.2079 174.654 22.6139 174.216 22.1759C173.778 21.7378 173.184 21.4914 172.564 21.4908Z" fill="#292929"/>
<path d="M195.988 23.7789H178.389C178.334 23.7789 178.281 23.7571 178.243 23.7183C178.204 23.6796 178.182 23.627 178.182 23.5721C178.182 23.5173 178.204 23.4647 178.243 23.4259C178.281 23.3871 178.334 23.3654 178.389 23.3654H195.988C196.043 23.3654 196.096 23.3871 196.134 23.4259C196.173 23.4647 196.195 23.5173 196.195 23.5721C196.195 23.627 196.173 23.6796 196.134 23.7183C196.096 23.7571 196.043 23.7789 195.988 23.7789Z" fill="#292929"/>
<path d="M200.636 23.7789H199.98C199.925 23.7789 199.872 23.7571 199.834 23.7183C199.795 23.6796 199.773 23.627 199.773 23.5721C199.773 23.5173 199.795 23.4647 199.834 23.4259C199.872 23.3871 199.925 23.3654 199.98 23.3654H200.636C200.691 23.3654 200.743 23.3871 200.782 23.4259C200.821 23.4647 200.843 23.5173 200.843 23.5721C200.843 23.627 200.821 23.6796 200.782 23.7183C200.743 23.7571 200.691 23.7789 200.636 23.7789Z" fill="#292929"/>
<path d="M198.332 23.7789H197.676C197.622 23.7789 197.569 23.7571 197.53 23.7183C197.492 23.6796 197.47 23.627 197.47 23.5721C197.47 23.5173 197.492 23.4647 197.53 23.4259C197.569 23.3871 197.622 23.3654 197.676 23.3654H198.332C198.387 23.3654 198.44 23.3871 198.479 23.4259C198.517 23.4647 198.539 23.5173 198.539 23.5721C198.539 23.627 198.517 23.6796 198.479 23.7183C198.44 23.7571 198.387 23.7789 198.332 23.7789Z" fill="#292929"/>
<path d="M203.097 23.7789H202.441C202.386 23.7789 202.333 23.7571 202.295 23.7183C202.256 23.6796 202.234 23.627 202.234 23.5721C202.234 23.5173 202.256 23.4647 202.295 23.4259C202.333 23.3871 202.386 23.3654 202.441 23.3654H203.097C203.152 23.3654 203.205 23.3871 203.243 23.4259C203.282 23.4647 203.304 23.5173 203.304 23.5721C203.304 23.627 203.282 23.6796 203.243 23.7183C203.205 23.7571 203.152 23.7789 203.097 23.7789Z" fill="#292929"/>
<path d="M207.527 32.1964H166.301V44.594H207.527V32.1964Z" fill="#00D0C4"/>
<g opacity="0.69">
<path d="M207.527 32.1964H166.301V44.594H207.527V32.1964Z" fill="#F4F4F4"/>
</g>
<path d="M207.528 44.8007H166.302C166.275 44.8008 166.248 44.7955 166.223 44.7851C166.197 44.7747 166.175 44.7595 166.155 44.7403C166.136 44.7211 166.121 44.6983 166.111 44.6732C166.1 44.6481 166.095 44.6211 166.095 44.594V32.1964C166.095 32.1692 166.1 32.1423 166.111 32.1172C166.121 32.0921 166.136 32.0693 166.155 32.0501C166.175 32.0309 166.197 32.0156 166.223 32.0053C166.248 31.9949 166.275 31.9896 166.302 31.9896H207.528C207.582 31.9896 207.635 32.0114 207.674 32.0502C207.713 32.089 207.734 32.1416 207.734 32.1964V44.594C207.734 44.6488 207.713 44.7014 207.674 44.7402C207.635 44.779 207.582 44.8007 207.528 44.8007ZM166.51 44.3872H207.321V32.4032H166.51V44.3872Z" fill="#292929"/>
<path d="M172.564 40.9386C173.969 40.9386 175.108 39.7999 175.108 38.3952C175.108 36.9905 173.969 35.8518 172.564 35.8518C171.16 35.8518 170.021 36.9905 170.021 38.3952C170.021 39.7999 171.16 40.9386 172.564 40.9386Z" fill="#F4F4F4"/>
<path d="M172.564 41.145C172.02 41.145 171.489 40.9837 171.036 40.6815C170.584 40.3793 170.232 39.9497 170.023 39.4472C169.815 38.9446 169.761 38.3916 169.867 37.8582C169.973 37.3247 170.235 36.8346 170.62 36.45C171.004 36.0654 171.494 35.8035 172.028 35.6975C172.561 35.5914 173.114 35.6459 173.617 35.8541C174.119 36.0623 174.549 36.4149 174.851 36.8672C175.153 37.3195 175.314 37.8513 175.314 38.3952C175.313 39.1243 175.023 39.8232 174.508 40.3387C173.992 40.8542 173.293 41.1442 172.564 41.145ZM172.564 36.0586C172.102 36.0586 171.65 36.1956 171.266 36.4524C170.882 36.7091 170.582 37.074 170.405 37.501C170.229 37.928 170.182 38.3978 170.273 38.8511C170.363 39.3043 170.585 39.7207 170.912 40.0475C171.239 40.3742 171.655 40.5968 172.108 40.6869C172.562 40.7771 173.031 40.7308 173.458 40.554C173.885 40.3771 174.25 40.0776 174.507 39.6934C174.764 39.3091 174.901 38.8573 174.901 38.3952C174.9 37.7757 174.654 37.1817 174.216 36.7436C173.778 36.3055 173.184 36.0592 172.564 36.0586Z" fill="#292929"/>
<path d="M195.988 38.3466H178.389C178.334 38.3466 178.281 38.3249 178.243 38.2861C178.204 38.2473 178.182 38.1947 178.182 38.1399C178.182 38.085 178.204 38.0324 178.243 37.9937C178.281 37.9549 178.334 37.9331 178.389 37.9331H195.988C196.043 37.9331 196.096 37.9549 196.134 37.9937C196.173 38.0324 196.195 38.085 196.195 38.1399C196.195 38.1947 196.173 38.2473 196.134 38.2861C196.096 38.3249 196.043 38.3466 195.988 38.3466Z" fill="#292929"/>
<path d="M200.636 38.3466H199.98C199.925 38.3466 199.872 38.3249 199.834 38.2861C199.795 38.2473 199.773 38.1947 199.773 38.1399C199.773 38.085 199.795 38.0324 199.834 37.9937C199.872 37.9549 199.925 37.9331 199.98 37.9331H200.636C200.691 37.9331 200.743 37.9549 200.782 37.9937C200.821 38.0324 200.843 38.085 200.843 38.1399C200.843 38.1947 200.821 38.2473 200.782 38.2861C200.743 38.3249 200.691 38.3466 200.636 38.3466Z" fill="#292929"/>
<path d="M198.332 38.3466H197.676C197.622 38.3466 197.569 38.3249 197.53 38.2861C197.492 38.2473 197.47 38.1947 197.47 38.1399C197.47 38.085 197.492 38.0324 197.53 37.9937C197.569 37.9549 197.622 37.9331 197.676 37.9331H198.332C198.387 37.9331 198.44 37.9549 198.479 37.9937C198.517 38.0324 198.539 38.085 198.539 38.1399C198.539 38.1947 198.517 38.2473 198.479 38.2861C198.44 38.3249 198.387 38.3466 198.332 38.3466Z" fill="#292929"/>
<path d="M203.097 38.3466H202.441C202.386 38.3466 202.333 38.3249 202.295 38.2861C202.256 38.2473 202.234 38.1947 202.234 38.1399C202.234 38.085 202.256 38.0324 202.295 37.9937C202.333 37.9549 202.386 37.9331 202.441 37.9331H203.097C203.152 37.9331 203.205 37.9549 203.243 37.9937C203.282 38.0324 203.304 38.085 203.304 38.1399C203.304 38.1947 203.282 38.2473 203.243 38.2861C203.205 38.3249 203.152 38.3466 203.097 38.3466Z" fill="#292929"/>
<path d="M164.137 47.3858C164.036 47.3858 163.939 47.3459 163.868 47.2747C163.797 47.2036 163.757 47.1071 163.757 47.0065V1.08666C163.757 0.986042 163.797 0.889544 163.868 0.818395C163.939 0.747246 164.036 0.707275 164.137 0.707275C164.237 0.707275 164.334 0.747246 164.405 0.818395C164.476 0.889544 164.516 0.986042 164.516 1.08666V47.0065C164.516 47.1071 164.476 47.2036 164.405 47.2747C164.334 47.3459 164.237 47.3858 164.137 47.3858Z" fill="#292929"/>
<path d="M221.605 27.3872C222.543 27.3872 223.303 26.627 223.303 25.6891C223.303 24.7512 222.543 23.991 221.605 23.991C220.667 23.991 219.907 24.7512 219.907 25.6891C219.907 26.627 220.667 27.3872 221.605 27.3872Z" fill="#F4F4F4"/>
<path d="M221.605 27.7666C221.194 27.7667 220.792 27.6449 220.45 27.4166C220.109 27.1883 219.842 26.8638 219.685 26.4841C219.528 26.1044 219.486 25.6866 219.567 25.2835C219.647 24.8803 219.845 24.5101 220.135 24.2194C220.426 23.9288 220.796 23.7309 221.199 23.6507C221.602 23.5706 222.02 23.6118 222.4 23.7691C222.78 23.9264 223.104 24.1928 223.332 24.5346C223.561 24.8763 223.682 25.2781 223.682 25.6891C223.682 26.2399 223.463 26.768 223.073 27.1575C222.684 27.547 222.156 27.766 221.605 27.7666ZM221.605 24.37C221.344 24.3699 221.089 24.4472 220.872 24.5921C220.655 24.737 220.486 24.943 220.386 25.184C220.286 25.4251 220.26 25.6903 220.311 25.9462C220.362 26.2021 220.487 26.4372 220.672 26.6218C220.856 26.8063 221.091 26.9319 221.347 26.9829C221.603 27.0338 221.868 27.0077 222.109 26.9079C222.35 26.808 222.556 26.639 222.701 26.422C222.846 26.2051 222.924 25.95 222.924 25.6891C222.923 25.3395 222.784 25.0042 222.537 24.7569C222.29 24.5096 221.955 24.3705 221.605 24.37Z" fill="#292929"/>
<path d="M241.295 27.3872C242.232 27.3872 242.993 26.627 242.993 25.6891C242.993 24.7512 242.232 23.991 241.295 23.991C240.357 23.991 239.597 24.7512 239.597 25.6891C239.597 26.627 240.357 27.3872 241.295 27.3872Z" fill="#F4F4F4"/>
<path d="M241.295 27.7666C240.884 27.7666 240.482 27.6448 240.14 27.4164C239.799 27.1881 239.532 26.8635 239.375 26.4838C239.218 26.1041 239.177 25.6863 239.257 25.2832C239.337 24.8801 239.535 24.5099 239.826 24.2193C240.116 23.9287 240.486 23.7309 240.89 23.6507C241.293 23.5706 241.71 23.6118 242.09 23.7691C242.47 23.9264 242.794 24.1928 243.023 24.5346C243.251 24.8764 243.373 25.2781 243.373 25.6891C243.372 26.24 243.153 26.7681 242.763 27.1576C242.374 27.5471 241.846 27.7661 241.295 27.7666ZM241.295 24.37C241.034 24.37 240.779 24.4474 240.562 24.5923C240.345 24.7373 240.176 24.9433 240.076 25.1843C239.976 25.4254 239.95 25.6906 240.001 25.9465C240.052 26.2024 240.177 26.4374 240.362 26.6219C240.546 26.8064 240.781 26.932 241.037 26.9829C241.293 27.0338 241.558 27.0077 241.799 26.9078C242.041 26.808 242.247 26.6389 242.391 26.422C242.536 26.2051 242.614 25.95 242.614 25.6891C242.613 25.3394 242.474 25.004 242.227 24.7567C241.98 24.5094 241.644 24.3703 241.295 24.37Z" fill="#292929"/>
<path d="M272.839 78.2839C276.136 78.2839 278.809 75.611 278.809 72.3138C278.809 69.0167 276.136 66.3438 272.839 66.3438C269.541 66.3438 266.869 69.0167 266.869 72.3138C266.869 75.611 269.541 78.2839 272.839 78.2839Z" fill="#F4F4F4"/>
<path d="M272.839 78.6632C271.583 78.6635 270.355 78.2914 269.311 77.5939C268.266 76.8964 267.452 75.9049 266.972 74.7447C266.491 73.5845 266.365 72.3078 266.61 71.0761C266.854 69.8443 267.459 68.7128 268.347 67.8247C269.235 66.9365 270.366 66.3316 271.598 66.0865C272.83 65.8414 274.106 65.9671 275.267 66.4476C276.427 66.9281 277.419 67.7419 278.116 68.7861C278.814 69.8303 279.186 71.058 279.186 72.3138C279.185 73.997 278.515 75.6106 277.325 76.8009C276.135 77.9912 274.522 78.6609 272.839 78.6632ZM272.839 66.7232C271.733 66.7229 270.652 67.0505 269.732 67.6646C268.813 68.2788 268.096 69.1518 267.673 70.1733C267.249 71.1949 267.138 72.319 267.354 73.4036C267.569 74.4882 268.102 75.4845 268.883 76.2665C269.665 77.0485 270.661 77.5811 271.746 77.7969C272.83 78.0128 273.955 77.9021 274.976 77.4791C275.998 77.056 276.871 76.3394 277.485 75.42C278.1 74.5006 278.428 73.4196 278.428 72.3138C278.426 70.8319 277.837 69.4111 276.789 68.3631C275.741 67.315 274.321 66.7253 272.839 66.7232Z" fill="#292929"/>
<path d="M275.296 75.1509C275.195 75.1509 275.099 75.1109 275.028 75.0397L270.113 70.1248C270.044 70.0532 270.006 69.9574 270.007 69.8579C270.008 69.7584 270.047 69.6633 270.118 69.5929C270.188 69.5226 270.283 69.4827 270.383 69.4818C270.482 69.481 270.578 69.5192 270.65 69.5883L275.564 74.5033C275.617 74.5563 275.653 74.6239 275.668 74.6975C275.683 74.7711 275.675 74.8473 275.646 74.9167C275.618 74.986 275.569 75.0452 275.507 75.0869C275.444 75.1286 275.371 75.1509 275.296 75.1509Z" fill="#00D0C4"/>
<path d="M270.381 75.1509C270.306 75.1509 270.233 75.1286 270.171 75.0869C270.108 75.0452 270.06 74.986 270.031 74.9167C270.002 74.8473 269.995 74.7711 270.009 74.6975C270.024 74.6239 270.06 74.5563 270.113 74.5033L275.028 69.5883C275.099 69.5192 275.195 69.481 275.295 69.4818C275.394 69.4827 275.489 69.5226 275.559 69.5929C275.63 69.6633 275.67 69.7584 275.671 69.8579C275.671 69.9574 275.633 70.0532 275.564 70.1248L270.65 75.0397C270.615 75.075 270.573 75.103 270.527 75.1221C270.481 75.1412 270.431 75.151 270.381 75.1509Z" fill="#00D0C4"/>
<path d="M153.34 178.293H56.5718C56.5348 178.296 56.4975 178.292 56.4623 178.281C56.427 178.269 56.3946 178.25 56.3671 178.225C56.3395 178.201 56.3176 178.17 56.3025 178.136C56.2874 178.102 56.2797 178.066 56.2797 178.029C56.2797 177.991 56.2874 177.955 56.3025 177.921C56.3176 177.887 56.3395 177.856 56.3671 177.832C56.3946 177.807 56.427 177.788 56.4623 177.776C56.4975 177.765 56.5348 177.761 56.5718 177.764H153.34C153.405 177.771 153.466 177.802 153.51 177.85C153.554 177.899 153.579 177.963 153.579 178.029C153.579 178.094 153.554 178.158 153.51 178.207C153.466 178.255 153.405 178.286 153.34 178.293Z" fill="#292929"/>
</g>
<defs>
<clipPath id="clip0_650_2893">
<rect width="307" height="177.585" fill="white" transform="translate(0 0.707275)"/>
</clipPath>
</defs>
</svg>
