<svg width="24" height="24" viewBox="0 0 24 24" fill="none" xmlns="http://www.w3.org/2000/svg">
<g id="ListView Icon">
<path id="Vector" d="M12.5 3.5C13.2417 3.5 13.9667 3.71993 14.5834 4.13199C15.2001 4.54404 15.6807 5.12971 15.9645 5.81494C16.2484 6.50016 16.3226 7.25416 16.1779 7.98159C16.0333 8.70902 15.6761 9.3772 15.1517 9.90165C14.6272 10.4261 13.959 10.7833 13.2316 10.9279C12.5042 11.0726 11.7502 10.9984 11.0649 10.7145C10.3797 10.4307 9.79404 9.95007 9.38199 9.33339C8.96993 8.7167 8.75 7.99168 8.75 7.25C8.75 6.25544 9.14509 5.30161 9.84835 4.59835C10.5516 3.89509 11.5054 3.5 12.5 3.5ZM12.5 2C11.4616 2 10.4466 2.30791 9.58326 2.88478C8.7199 3.46166 8.04699 4.2816 7.64963 5.24091C7.25227 6.20022 7.14831 7.25582 7.35088 8.27422C7.55345 9.29262 8.05346 10.2281 8.78769 10.9623C9.52192 11.6965 10.4574 12.1966 11.4758 12.3991C12.4942 12.6017 13.5498 12.4977 14.5091 12.1004C15.4684 11.703 16.2883 11.0301 16.8652 10.1667C17.4421 9.30339 17.75 8.28835 17.75 7.25C17.75 5.85761 17.1969 4.52226 16.2123 3.53769C15.2277 2.55312 13.8924 2 12.5 2ZM20 23H18.5V19.25C18.5 18.7575 18.403 18.2699 18.2145 17.8149C18.0261 17.36 17.7499 16.9466 17.4017 16.5983C17.0534 16.2501 16.64 15.9739 16.1851 15.7855C15.7301 15.597 15.2425 15.5 14.75 15.5H10.25C9.25544 15.5 8.30161 15.8951 7.59835 16.5983C6.89509 17.3016 6.5 18.2554 6.5 19.25V23H5V19.25C5 17.8576 5.55312 16.5223 6.53769 15.5377C7.52226 14.5531 8.85761 14 10.25 14H14.75C16.1424 14 17.4777 14.5531 18.4623 15.5377C19.4469 16.5223 20 17.8576 20 19.25V23Z" fill="white"/>
</g>
</svg>
