<svg width="14" height="15" viewBox="0 0 14 15" fill="none" xmlns="http://www.w3.org/2000/svg">
<g id="Icon" clip-path="url(#clip0_652_1297)">
<path id="Vector" d="M13.4033 5.46016L12.1966 4.25348C12.0993 4.15744 11.9695 4.10136 11.8328 4.0963C11.6961 4.09124 11.5625 4.13756 11.4583 4.22614C11.2975 4.36306 11.0911 4.43455 10.88 4.42645C10.6689 4.41835 10.4685 4.33124 10.3187 4.18239C10.1699 4.03251 10.0828 3.83223 10.0747 3.62121C10.0666 3.41019 10.1381 3.20382 10.2749 3.04298C10.3635 2.93878 10.4098 2.80518 10.4047 2.66852C10.3997 2.53186 10.3436 2.40205 10.2476 2.30469L9.03979 1.09665C8.93772 0.994776 8.79941 0.937561 8.6552 0.937561C8.51099 0.937561 8.37268 0.994776 8.27061 1.09665L6.34698 3.02001C6.22824 3.13921 6.13868 3.28427 6.0853 3.44384C6.07491 3.47452 6.05759 3.50239 6.03469 3.52529C6.01178 3.5482 5.98391 3.56552 5.95323 3.57591C5.79359 3.62927 5.64852 3.71894 5.5294 3.83786L0.596586 8.77067C0.494715 8.87274 0.4375 9.01105 0.4375 9.15526C0.4375 9.29947 0.494715 9.43778 0.596586 9.53985L1.80463 10.7465C1.90199 10.8426 2.0318 10.8987 2.16846 10.9037C2.30512 10.9088 2.43872 10.8625 2.54291 10.7739C2.70339 10.6358 2.9101 10.5636 3.12162 10.5715C3.33314 10.5794 3.53385 10.667 3.68352 10.8167C3.8332 10.9664 3.92078 11.1671 3.92872 11.3786C3.93667 11.5901 3.86438 11.7968 3.72635 11.9573C3.63777 12.0615 3.59145 12.1951 3.59651 12.3318C3.60157 12.4684 3.65765 12.5982 3.7537 12.6956L4.96038 13.9023C5.06244 14.0041 5.20076 14.0614 5.34497 14.0614C5.48917 14.0614 5.62749 14.0041 5.72956 13.9023L10.6624 8.96946C10.7812 8.85042 10.8709 8.70544 10.9243 8.54591C10.9347 8.51512 10.952 8.48716 10.975 8.4642C10.9979 8.44124 11.0259 8.4239 11.0567 8.41356C11.2162 8.3602 11.3611 8.27063 11.4802 8.15188L13.4036 6.22825C13.5051 6.12619 13.562 5.98809 13.562 5.84415C13.5619 5.70021 13.5049 5.56215 13.4033 5.46016ZM7.15881 4.64942C7.11819 4.69006 7.06995 4.72229 7.01687 4.74428C6.96378 4.76628 6.90688 4.7776 6.84942 4.7776C6.79196 4.7776 6.73506 4.76628 6.68197 4.74428C6.62888 4.72229 6.58065 4.69006 6.54002 4.64942L6.2253 4.33469C6.14525 4.25223 6.10086 4.14159 6.10172 4.02666C6.10259 3.91174 6.14864 3.80178 6.22992 3.72053C6.3112 3.63928 6.42119 3.59328 6.53611 3.59247C6.65103 3.59166 6.76166 3.63609 6.84409 3.71618L7.15881 4.03063C7.19945 4.07126 7.23168 4.11949 7.25368 4.17258C7.27567 4.22567 7.28699 4.28256 7.28699 4.34003C7.28699 4.39749 7.27567 4.45439 7.25368 4.50747C7.23168 4.56056 7.19945 4.60879 7.15881 4.64942ZM8.36194 5.85255C8.2799 5.93453 8.16866 5.98059 8.05268 5.98059C7.9367 5.98059 7.82546 5.93453 7.74342 5.85255L7.44264 5.55176C7.36058 5.46971 7.31449 5.35842 7.31449 5.24237C7.31449 5.12632 7.36058 5.01503 7.44264 4.93298C7.5247 4.85092 7.63599 4.80482 7.75204 4.80482C7.86808 4.80482 7.97937 4.85092 8.06143 4.93298L8.36221 5.23376C8.40299 5.27438 8.43535 5.32265 8.45744 5.3758C8.47953 5.42896 8.49091 5.48595 8.49094 5.5435C8.49096 5.60106 8.47963 5.65806 8.45759 5.71123C8.43554 5.76441 8.40323 5.81271 8.36248 5.85337L8.36194 5.85255ZM9.56506 7.05567C9.52444 7.09631 9.4762 7.12854 9.42312 7.15053C9.37003 7.17253 9.31313 7.18385 9.25567 7.18385C9.19821 7.18385 9.14131 7.17253 9.08822 7.15053C9.03513 7.12854 8.9869 7.09631 8.94627 7.05567L8.64549 6.75489C8.56544 6.67243 8.52105 6.56178 8.52192 6.44686C8.52279 6.33194 8.56883 6.22197 8.65012 6.14073C8.7314 6.05948 8.84139 6.01348 8.95631 6.01266C9.07123 6.01185 9.18186 6.05629 9.26428 6.13637L9.56506 6.43716C9.60595 6.47771 9.63843 6.52594 9.66064 6.57908C9.68285 6.63222 9.69434 6.68922 9.69447 6.74681C9.6946 6.8044 9.68335 6.86146 9.66138 6.91469C9.63941 6.96793 9.60714 7.0163 9.56643 7.05704L9.56506 7.05567ZM10.7799 8.27356C10.7393 8.3142 10.6911 8.34643 10.638 8.36843C10.5849 8.39042 10.528 8.40174 10.4706 8.40174C10.4131 8.40174 10.3562 8.39042 10.3031 8.36843C10.25 8.34643 10.2018 8.3142 10.1612 8.27356L9.84834 7.95911C9.80686 7.9186 9.77383 7.87025 9.75119 7.81687C9.72856 7.76349 9.71676 7.70614 9.71648 7.64815C9.7162 7.59017 9.72746 7.53271 9.74958 7.47911C9.77171 7.42552 9.80427 7.37686 9.84537 7.33595C9.88647 7.29505 9.93529 7.26273 9.98899 7.24086C10.0427 7.219 10.1002 7.20803 10.1582 7.20858C10.2162 7.20914 10.2735 7.22122 10.3267 7.24412C10.38 7.26702 10.4282 7.30027 10.4685 7.34196L10.7816 7.65614C10.8222 7.69678 10.8544 7.74503 10.8764 7.79813C10.8984 7.85122 10.9097 7.90813 10.9096 7.96559C10.9096 8.02305 10.8983 8.07995 10.8762 8.13302C10.8542 8.1861 10.822 8.23432 10.7813 8.27493L10.7799 8.27356Z" fill="white"/>
</g>
<defs>
<clipPath id="clip0_652_1297">
<rect width="14" height="14" fill="white" transform="translate(0 0.5)"/>
</clipPath>
</defs>
</svg>
